<?xml version="1.0" encoding="utf-8"?>
<!-- Generator: Adobe Illustrator 24.0.3, SVG Export Plug-In . SVG Version: 6.00 Build 0)  -->
<svg version="1.1" id="Layer_1" xmlns="http://www.w3.org/2000/svg" xmlns:xlink="http://www.w3.org/1999/xlink" x="0px" y="0px"
	 viewBox="0 0 440 950" style="enable-background:new 0 0 440 950;" xml:space="preserve">
<style type="text/css">
	.st0{fill:none;}
	.st1{fill:#92867F;}
	.st2{fill:#E8CDBD;}
	.st3{fill:#93867F;}
	.st4{fill:#E7CCBC;}
	.st5{clip-path:url(#SVGID_2_);}
	.st6{clip-path:url(#SVGID_4_);}
	.st7{clip-path:url(#SVGID_6_);}
</style>
<g>
	<defs>
		
			<rect id="SVGID_3_" x="-752.9" y="255.9" transform="matrix(-1.836970e-16 1 -1 -1.836970e-16 198.0967 752.9033)" width="951" height="439.19"/>
	</defs>
	<clipPath id="SVGID_2_">
		<use xlink:href="#SVGID_3_"  style="overflow:visible;"/>
	</clipPath>
	<g class="st5">
		<g>
			<g>
				<path class="st2" d="M25.7-36.45L21.98-9.4c-0.06,0.59-0.11,1.16-0.14,1.7c-0.03,0.54-0.05,1.06-0.05,1.56
					c0,0.31,0.02,0.82,0.05,1.51c0.03,0.7,0.05,1.25,0.05,1.65c-1.71-2.82-3.86-4.95-6.47-6.38c-2.61-1.43-5.6-2.14-8.99-2.14
					c-6.4,0-11.65,2.55-15.76,7.66c-4.11,5.11-6.17,11.65-6.17,19.63c0,6.86,1.61,12.19,4.84,15.97s7.78,5.68,13.65,5.68
					c3.13,0,5.87-0.57,8.2-1.7c2.33-1.13,4.24-2.83,5.73-5.1l-0.65,5.08h13.13l9.45-72.18H25.7z M16.83,21.57
					c-2.16,2.83-4.99,4.24-8.5,4.24c-3.38,0-6.06-0.98-8.03-2.93c-1.97-1.96-2.96-4.59-2.96-7.92c0-4.94,1.09-8.82,3.28-11.67
					c2.19-2.84,5.16-4.26,8.92-4.26c3.32,0,5.91,0.99,7.75,2.98c1.85,1.99,2.77,4.77,2.77,8.34C20.07,15.01,18.99,18.75,16.83,21.57
					z"/>
			</g>
			<path class="st2" d="M15.41,45.55c7.17,0,12.89,2.06,17.16,6.19c4.27,4.13,6.4,9.67,6.4,16.63c0,7.61-2.52,13.88-7.54,18.81
				c-5.03,4.94-11.49,7.4-19.37,7.4c-6.99,0-12.57-2.05-16.76-6.15c-4.19-4.1-6.29-9.55-6.29-16.35c0-7.76,2.47-14.13,7.43-19.09
				C1.38,48.04,7.71,45.55,15.41,45.55z M15.5,57.57c-3.91,0-7.06,1.33-9.45,3.98c-2.39,2.65-3.59,6.14-3.59,10.46
				c0,3.26,0.89,5.84,2.68,7.73c1.79,1.89,4.23,2.84,7.33,2.84c3.85,0,6.99-1.3,9.41-3.91c2.42-2.61,3.63-6.01,3.63-10.2
				c0-3.41-0.88-6.07-2.63-7.96C21.13,58.61,18.67,57.63,15.5,57.57z"/>
			<path class="st2" d="M50.22,92.78l6.01-45.69h12.2l-1.02,7.17c2.79-3.01,5.56-5.22,8.29-6.61c2.73-1.4,5.62-2.1,8.66-2.1
				c4.94,0,8.78,1.21,11.53,3.63c2.75,2.42,4.12,5.79,4.12,10.11c0,1.71-0.26,4.47-0.79,8.29c-0.06,0.47-0.11,0.81-0.14,1.03
				L95.9,92.78H82.72l3.35-25.47c0.09-0.9,0.16-1.68,0.21-2.35c0.05-0.67,0.07-1.22,0.07-1.65c0-2.14-0.61-3.8-1.82-4.98
				c-1.21-1.18-2.92-1.77-5.12-1.77c-3.85,0-6.84,1.13-8.96,3.38c-2.13,2.25-3.5,5.74-4.12,10.45l-2.93,22.4H50.22z"/>
		</g>
		<g>
			<g>
				<path class="st2" d="M8.93,462.16L5.2,489.22c-0.06,0.59-0.11,1.16-0.14,1.7c-0.03,0.54-0.05,1.06-0.05,1.56
					c0,0.31,0.02,0.82,0.05,1.51c0.03,0.7,0.05,1.25,0.05,1.65c-1.71-2.82-3.86-4.95-6.47-6.38c-2.61-1.43-5.6-2.14-8.99-2.14
					c-6.4,0-11.65,2.55-15.76,7.66c-4.11,5.11-6.17,11.65-6.17,19.63c0,6.86,1.61,12.19,4.84,15.97s7.78,5.68,13.65,5.68
					c3.13,0,5.87-0.57,8.2-1.7c2.33-1.13,4.24-2.83,5.73-5.1l-0.65,5.08h13.13l9.45-72.18H8.93z M0.06,520.19
					c-2.16,2.83-4.99,4.24-8.5,4.24c-3.38,0-6.06-0.98-8.03-2.93c-1.97-1.96-2.96-4.59-2.96-7.92c0-4.94,1.09-8.82,3.28-11.67
					c2.19-2.84,5.16-4.26,8.92-4.26c3.32,0,5.91,0.99,7.75,2.98c1.85,1.99,2.77,4.77,2.77,8.34C3.3,513.62,2.22,517.36,0.06,520.19z
					"/>
			</g>
			<path class="st2" d="M-1.36,544.17c7.17,0,12.89,2.06,17.16,6.19c4.27,4.13,6.4,9.67,6.4,16.63c0,7.61-2.52,13.88-7.54,18.81
				c-5.03,4.94-11.49,7.4-19.37,7.4c-6.99,0-12.57-2.05-16.76-6.15c-4.19-4.1-6.29-9.55-6.29-16.35c0-7.76,2.47-14.13,7.43-19.09
				C-15.39,546.65-9.06,544.17-1.36,544.17z M-1.27,556.18c-3.91,0-7.06,1.33-9.45,3.98c-2.39,2.65-3.59,6.14-3.59,10.46
				c0,3.26,0.89,5.84,2.68,7.73c1.79,1.89,4.23,2.84,7.33,2.84c3.85,0,6.99-1.3,9.41-3.91c2.42-2.61,3.63-6.01,3.63-10.2
				c0-3.41-0.88-6.07-2.63-7.96S1.9,556.25-1.27,556.18z"/>
			<path class="st2" d="M33.44,591.39l6.01-45.69h12.2l-1.02,7.17c2.79-3.01,5.56-5.22,8.29-6.61c2.73-1.4,5.62-2.1,8.66-2.1
				c4.94,0,8.78,1.21,11.53,3.63s4.12,5.79,4.12,10.11c0,1.71-0.26,4.47-0.79,8.29c-0.06,0.47-0.11,0.81-0.14,1.03l-3.17,24.17
				H65.95l3.35-25.47c0.09-0.9,0.16-1.68,0.21-2.35c0.05-0.67,0.07-1.22,0.07-1.65c0-2.14-0.61-3.8-1.82-4.98
				c-1.21-1.18-2.92-1.77-5.12-1.77c-3.85,0-6.84,1.13-8.96,3.38c-2.13,2.25-3.5,5.74-4.12,10.45l-2.93,22.4H33.44z"/>
		</g>
	</g>
</g>
<g>
	<defs>
		
			<rect id="SVGID_5_" x="258.1" y="255.9" transform="matrix(-1.836970e-16 1 -1 -1.836970e-16 1209.0967 -258.0967)" width="951" height="439.19"/>
	</defs>
	<clipPath id="SVGID_4_">
		<use xlink:href="#SVGID_5_"  style="overflow:visible;"/>
	</clipPath>
	<g class="st6">
		<g>
			<g>
				<path class="st1" d="M362.91,78.57c-2.48,0-4.93,0.53-7.33,1.58c-2.41,1.06-4.79,2.65-7.15,4.8c0.31-0.84,0.59-1.78,0.84-2.82
					c0.25-1.04,0.43-2.15,0.56-3.33l3.45-25.19h-13.18l-9.41,72.18h13.13l0.65-5.45c2.48,2.55,4.95,4.39,7.4,5.54
					c2.45,1.15,5.11,1.72,7.96,1.72c6.52,0,11.79-2.52,15.81-7.57s6.03-11.68,6.03-19.91c0-6.77-1.66-12.05-4.98-15.86
					C373.37,80.47,368.78,78.57,362.91,78.57z M365.56,112.84c-2.17,2.73-5.15,4.1-8.94,4.1c-3.2,0-5.75-0.99-7.66-2.98
					c-1.91-1.99-2.86-4.63-2.86-7.92c0-4.9,1.09-8.77,3.28-11.6c2.19-2.82,5.16-4.24,8.92-4.24c3.35,0,5.95,0.99,7.78,2.98
					c1.83,1.99,2.75,4.78,2.75,8.38C368.82,106.36,367.74,110.11,365.56,112.84z"/>
				<path class="st1" d="M425.01,78.57c-2.89,0-5.5,0.81-7.85,2.42c-2.34,1.61-4.34,3.99-5.98,7.12l1.16-8.01h-13.18l-6.01,45.69
					h13.18l2.47-19.47c0.62-5.03,1.96-8.79,4.03-11.29c2.06-2.5,4.85-3.75,8.36-3.75c0.84,0,1.7,0.08,2.58,0.23
					c0.88,0.16,1.81,0.39,2.77,0.7l2.56-13.18c-0.62-0.16-1.26-0.27-1.91-0.35C426.54,78.61,425.81,78.57,425.01,78.57z"/>
				<path class="st1" d="M472.48,86.49c-1.68-2.64-3.76-4.62-6.24-5.94c-2.48-1.32-5.36-1.98-8.62-1.98
					c-6.4,0-11.66,2.56-15.81,7.68c-4.14,5.12-6.22,11.66-6.22,19.61c0,6.89,1.62,12.24,4.87,16.04c3.24,3.8,7.78,5.7,13.62,5.7
					c3.07,0,5.77-0.57,8.1-1.72c2.33-1.15,4.27-2.87,5.82-5.17l-0.75,5.08h13.13l6.01-45.69h-13.13L472.48,86.49z M467.94,111.63
					c-2.16,2.83-4.99,4.24-8.5,4.24c-3.38,0-6.06-0.99-8.03-2.98c-1.97-1.99-2.96-4.66-2.96-8.01c0-4.9,1.09-8.76,3.28-11.57
					c2.19-2.81,5.16-4.21,8.92-4.21c3.29,0,5.87,1,7.73,3c1.86,2,2.79,4.77,2.79,8.31C471.18,105.07,470.1,108.81,467.94,111.63z"/>
			</g>
		</g>
		<g>
			<polygon class="st1" points="410.1,318.35 416.01,272.67 429.19,272.67 423.28,318.35 			"/>
			<g>
				<path class="st1" d="M284.23,214.08c-2.48,0-4.93,0.53-7.33,1.58c-2.41,1.06-4.79,2.65-7.15,4.8c0.31-0.84,0.59-1.78,0.84-2.82
					c0.25-1.04,0.43-2.15,0.56-3.33l3.45-25.19h-13.18L252,261.31h13.13l0.65-5.45c2.48,2.55,4.95,4.39,7.4,5.54
					c2.45,1.15,5.11,1.72,7.96,1.72c6.52,0,11.79-2.52,15.81-7.57c4.02-5.05,6.03-11.68,6.03-19.91c0-6.77-1.66-12.05-4.98-15.86
					C294.69,215.99,290.09,214.08,284.23,214.08z M286.88,248.36c-2.17,2.73-5.15,4.1-8.94,4.1c-3.2,0-5.75-0.99-7.66-2.98
					c-1.91-1.99-2.86-4.63-2.86-7.92c0-4.9,1.09-8.77,3.28-11.6c2.19-2.82,5.16-4.24,8.92-4.24c3.35,0,5.95,0.99,7.78,2.98
					c1.83,1.99,2.75,4.78,2.75,8.38C290.14,241.87,289.05,245.63,286.88,248.36z"/>
				<path class="st1" d="M346.32,214.08c-2.89,0-5.5,0.81-7.85,2.42c-2.34,1.61-4.34,3.99-5.98,7.12l1.16-8.01h-13.18l-6.01,45.69
					h13.18l2.47-19.47c0.62-5.03,1.96-8.79,4.03-11.29c2.06-2.5,4.85-3.75,8.36-3.75c0.84,0,1.7,0.08,2.58,0.23
					c0.88,0.16,1.81,0.39,2.77,0.7l2.56-13.18c-0.62-0.16-1.26-0.27-1.91-0.35C347.86,214.12,347.13,214.08,346.32,214.08z"/>
				<path class="st1" d="M393.8,222c-1.68-2.64-3.76-4.62-6.24-5.94c-2.48-1.32-5.36-1.98-8.62-1.98c-6.4,0-11.66,2.56-15.81,7.68
					c-4.14,5.12-6.22,11.66-6.22,19.61c0,6.89,1.62,12.24,4.87,16.04c3.24,3.8,7.78,5.7,13.62,5.7c3.07,0,5.77-0.57,8.1-1.72
					c2.33-1.15,4.27-2.87,5.82-5.17l-0.75,5.08h13.13l6.01-45.69h-13.13L393.8,222z M389.26,247.15c-2.16,2.83-4.99,4.24-8.5,4.24
					c-3.38,0-6.06-0.99-8.03-2.98c-1.97-1.99-2.96-4.66-2.96-8.01c0-4.9,1.09-8.76,3.28-11.57c2.19-2.81,5.16-4.21,8.92-4.21
					c3.29,0,5.87,1,7.73,3c1.86,2,2.79,4.77,2.79,8.31C392.49,240.58,391.41,244.32,389.26,247.15z"/>
				<path class="st1" d="M465.02,257.48h-0.11l2.67-20.35c0.03-0.22,0.08-0.56,0.14-1.02c0.53-3.82,0.79-6.58,0.79-8.29
					c0-4.31-1.37-7.68-4.12-10.11c-2.75-2.42-6.59-3.63-11.53-3.63c-3.04,0-5.93,0.7-8.66,2.1c-2.73,1.4-5.5,3.6-8.29,6.61
					l1.02-7.17h-12.2l-6.01,45.69h13.18l2.93-22.4c0.62-4.72,1.99-8.2,4.12-10.45c2.13-2.25,5.12-3.38,8.97-3.38
					c2.2,0,3.91,0.59,5.12,1.77c1.21,1.18,1.82,2.84,1.82,4.98c0,0.44-0.02,0.99-0.07,1.65c-0.05,0.67-0.12,1.45-0.21,2.35
					l-3.35,25.47h0.01l-1.5,11.36h-8.66l-1.35,10.39h8.71l-4.7,35.3h13.18l4.66-35.3h8.89l1.3-10.39h-8.85L465.02,257.48z"/>
			</g>
		</g>
		<g>
			<g>
				<path class="st1" d="M328.6,431.94c-2.48,0-4.93,0.53-7.33,1.58c-2.41,1.06-4.79,2.65-7.15,4.8c0.31-0.84,0.59-1.78,0.84-2.82
					c0.25-1.04,0.43-2.15,0.56-3.33l3.45-25.19h-13.18l-9.41,72.18h13.13l0.65-5.45c2.48,2.55,4.95,4.39,7.4,5.54
					c2.45,1.15,5.11,1.72,7.96,1.72c6.52,0,11.79-2.52,15.81-7.57s6.03-11.68,6.03-19.91c0-6.77-1.66-12.05-4.98-15.86
					C339.06,433.84,334.47,431.94,328.6,431.94z M331.26,466.21c-2.17,2.73-5.15,4.1-8.94,4.1c-3.2,0-5.75-0.99-7.66-2.98
					c-1.91-1.99-2.86-4.63-2.86-7.92c0-4.9,1.09-8.77,3.28-11.6c2.19-2.82,5.16-4.24,8.92-4.24c3.35,0,5.95,0.99,7.78,2.98
					c1.83,1.99,2.75,4.78,2.75,8.38C334.52,459.73,333.43,463.48,331.26,466.21z"/>
				<path class="st1" d="M390.7,431.94c-2.89,0-5.5,0.81-7.85,2.42c-2.34,1.61-4.34,3.99-5.98,7.12l1.16-8.01h-13.18l-6.01,45.69
					h13.18l2.47-19.47c0.62-5.03,1.96-8.79,4.03-11.29c2.06-2.5,4.85-3.75,8.36-3.75c0.84,0,1.7,0.08,2.58,0.23
					c0.88,0.16,1.81,0.39,2.77,0.7l2.56-13.18c-0.62-0.16-1.26-0.27-1.91-0.35C392.23,431.98,391.5,431.94,390.7,431.94z"/>
				<path class="st1" d="M438.17,439.86c-1.68-2.64-3.76-4.62-6.24-5.94c-2.48-1.32-5.36-1.98-8.62-1.98
					c-6.4,0-11.66,2.56-15.81,7.68c-4.14,5.12-6.22,11.66-6.22,19.61c0,6.89,1.62,12.24,4.87,16.04c3.24,3.8,7.78,5.7,13.62,5.7
					c3.07,0,5.77-0.57,8.1-1.72c2.33-1.15,4.27-2.87,5.82-5.17l-0.75,5.08h13.13l6.01-45.69h-13.13L438.17,439.86z M433.63,465
					c-2.16,2.83-4.99,4.24-8.5,4.24c-3.38,0-6.06-0.99-8.03-2.98c-1.97-1.99-2.96-4.66-2.96-8.01c0-4.9,1.09-8.76,3.28-11.57
					c2.19-2.81,5.16-4.21,8.92-4.21c3.29,0,5.87,1,7.73,3c1.86,2,2.79,4.77,2.79,8.31C436.87,458.44,435.79,462.18,433.63,465z"/>
			</g>
		</g>
	</g>
</g>
<g>
	<path class="st1" d="M94.2,0h-2.67c0.84,0.87,1.61,1.85,2.3,2.94L94.2,0z"/>
	<path class="st1" d="M35.65,0h-2.46l-0.67,4.57C33.46,2.8,34.5,1.28,35.65,0z"/>
	<path class="st1" d="M139.91,0h-3.42l-0.53,3.73C137.28,2.31,138.59,1.07,139.91,0z"/>
	<path class="st1" d="M218.86,1.9c-0.03-0.7-0.05-1.2-0.05-1.51c0-0.12,0.01-0.26,0.01-0.38h-2.66c1.01,1.03,1.93,2.21,2.74,3.55
		C218.91,3.14,218.89,2.59,218.86,1.9z"/>
	<polygon class="st2" points="129.23,53.61 116.05,53.61 110.14,99.29 123.31,99.29 	"/>
	<path class="st2" d="M1,5.46v23.76c1.34-3.69,2.03-7.89,2.03-12.64C3.03,12.27,2.35,8.57,1,5.46z"/>
	<path class="st2" d="M27.69,42.25l2.47-19.47c0.62-5.03,1.96-8.79,4.03-11.29c2.06-2.5,4.85-3.75,8.36-3.75
		c0.84,0,1.7,0.08,2.58,0.23c0.88,0.16,1.81,0.39,2.77,0.7L49.58,0H35.65c-1.15,1.28-2.2,2.8-3.12,4.57L33.19,0H20.06L14.5,42.25
		H27.69z"/>
	<path class="st2" d="M63.17,2.71c-4.14,5.12-6.22,11.66-6.22,19.61c0,6.89,1.62,12.24,4.87,16.04c3.24,3.8,7.78,5.7,13.62,5.7
		c3.07,0,5.77-0.57,8.1-1.72c2.33-1.15,4.27-2.87,5.82-5.17l-0.75,5.08h13.13L107.3,0H94.2l-0.37,2.94c-0.7-1.1-1.47-2.07-2.3-2.94
		h-25.8C64.83,0.81,63.98,1.71,63.17,2.71z M73.09,9.76c2.19-2.81,5.16-4.21,8.92-4.21c3.29,0,5.87,1,7.73,3
		c1.86,2,2.79,4.77,2.79,8.31c0,4.66-1.08,8.4-3.24,11.22c-2.16,2.83-4.99,4.24-8.5,4.24c-3.38,0-6.06-0.99-8.03-2.98
		c-1.97-1.99-2.96-4.66-2.96-8.01C69.8,16.43,70.9,12.58,73.09,9.76z"/>
	<path class="st2" d="M187.68,2.69c-4.11,5.11-6.17,11.65-6.17,19.63c0,6.86,1.61,12.19,4.84,15.97c3.23,3.79,7.78,5.68,13.65,5.68
		c3.13,0,5.87-0.57,8.2-1.7s4.24-2.83,5.73-5.1l-0.65,5.08h13.13L231.94,0h-13.11c0,0.12-0.01,0.26-0.01,0.38
		c0,0.31,0.02,0.82,0.05,1.51c0.03,0.7,0.05,1.25,0.05,1.65c-0.81-1.34-1.73-2.52-2.74-3.55h-25.95
		C189.33,0.8,188.48,1.69,187.68,2.69z M197.65,9.81c2.19-2.84,5.16-4.26,8.92-4.26c3.32,0,5.91,0.99,7.75,2.98
		c1.85,1.99,2.77,4.77,2.77,8.34c0,4.66-1.08,8.4-3.24,11.22c-2.16,2.83-4.99,4.24-8.5,4.24c-3.38,0-6.06-0.98-8.03-2.93
		c-1.97-1.96-2.96-4.59-2.96-7.92C194.37,16.54,195.46,12.65,197.65,9.81z"/>
	<path class="st2" d="M131.95,42.25l2.93-22.4c0.62-4.72,2-8.2,4.12-10.45c2.13-2.25,5.12-3.38,8.96-3.38
		c2.21,0,3.91,0.59,5.12,1.77c1.21,1.18,1.82,2.84,1.82,4.98c0,0.44-0.02,0.99-0.07,1.65c-0.05,0.67-0.12,1.45-0.21,2.35
		l-3.35,25.47h0.01l-1.5,11.36h-8.66l-1.35,10.39h8.71l-4.7,35.3h13.18l4.66-35.3h8.89l1.3-10.39h-8.85l2.09-15.18h-0.11l2.67-20.35
		c0.03-0.22,0.08-0.56,0.14-1.02c0.53-3.82,0.79-6.58,0.79-8.29c0-3.57-0.96-6.49-2.84-8.76h-25.8c-1.31,1.07-2.63,2.31-3.96,3.73
		L136.48,0h-12.16l-5.56,42.25H131.95z"/>
	<path class="st2" d="M209.08,101.11c7.88,0,14.34-2.47,19.37-7.4c5.03-4.94,7.54-11.21,7.54-18.81c0-6.95-2.14-12.5-6.4-16.63
		c-4.27-4.13-9.99-6.19-17.16-6.19c-7.7,0-14.03,2.48-18.98,7.45c-4.95,4.97-7.43,11.33-7.43,19.09c0,6.8,2.1,12.25,6.29,16.35
		C196.51,99.06,202.1,101.11,209.08,101.11z M203.07,68.07c2.39-2.65,5.54-3.98,9.45-3.98c3.17,0.06,5.63,1.04,7.38,2.93
		c1.75,1.89,2.63,4.55,2.63,7.96c0,4.19-1.21,7.59-3.63,10.2c-2.42,2.61-5.56,3.91-9.41,3.91c-3.1,0-5.55-0.95-7.33-2.84
		c-1.79-1.89-2.68-4.47-2.68-7.73C199.49,74.21,200.68,70.72,203.07,68.07z"/>
	<path class="st2" d="M263.35,76.89c0.62-4.72,1.99-8.2,4.12-10.45s5.12-3.38,8.96-3.38c2.2,0,3.91,0.59,5.12,1.77
		c1.21,1.18,1.82,2.84,1.82,4.98c0,0.43-0.02,0.99-0.07,1.65c-0.05,0.67-0.12,1.45-0.21,2.35l-3.35,25.47h13.18l3.17-24.17
		c0.03-0.22,0.08-0.56,0.14-1.03c0.53-3.82,0.79-6.58,0.79-8.29c0-4.31-1.37-7.68-4.12-10.11c-2.75-2.42-6.59-3.63-11.53-3.63
		c-3.04,0-5.93,0.7-8.66,2.1c-2.73,1.4-5.5,3.6-8.29,6.61l1.02-7.17h-12.2l-6.01,45.69h13.18L263.35,76.89z"/>
	<path class="st2" d="M65.65,127.51c3.13,0,5.87-0.57,8.2-1.7c2.33-1.13,4.24-2.83,5.73-5.1l-0.65,5.08h13.13l9.45-72.18H88.38
		l-3.73,27.06c-0.06,0.59-0.11,1.16-0.14,1.7c-0.03,0.54-0.05,1.06-0.05,1.56c0,0.31,0.02,0.82,0.05,1.51
		c0.03,0.7,0.05,1.25,0.05,1.65c-1.71-2.82-3.86-4.95-6.47-6.38c-2.61-1.43-5.6-2.14-8.99-2.14c-6.4,0-11.65,2.55-15.77,7.66
		c-4.11,5.11-6.17,11.65-6.17,19.63c0,6.86,1.61,12.19,4.84,15.97C55.23,125.62,59.78,127.51,65.65,127.51z M63.3,93.36
		c2.19-2.84,5.16-4.26,8.92-4.26c3.32,0,5.91,0.99,7.75,2.98c1.85,1.99,2.77,4.77,2.77,8.34c0,4.66-1.08,8.4-3.24,11.22
		c-2.16,2.83-4.99,4.24-8.5,4.24c-3.38,0-6.06-0.98-8.03-2.93c-1.97-1.96-2.96-4.59-2.96-7.92C60.01,100.08,61.11,96.2,63.3,93.36z"
		/>
	<path class="st2" d="M13.61,89.56c2.2,0,3.91,0.59,5.12,1.77c1.21,1.18,1.82,2.84,1.82,4.98c0,0.44-0.02,0.99-0.07,1.65
		c-0.05,0.67-0.12,1.45-0.21,2.35l-3.35,25.47h0.01l-1.5,11.36H6.77l-1.35,10.39h8.71l-4.7,35.3H22.6l4.66-35.3h8.89l1.3-10.39
		h-8.85l2.09-15.18H30.6l2.67-20.35c0.03-0.22,0.08-0.56,0.14-1.02c0.53-3.82,0.79-6.58,0.79-8.29c0-4.31-1.37-7.68-4.12-10.11
		c-2.75-2.42-6.59-3.63-11.53-3.63c-3.04,0-5.93,0.7-8.66,2.1c-2.73,1.4-5.5,3.6-8.29,6.61l1.02-7.17H1v20.6
		c0.74-3.37,1.95-5.97,3.65-7.77C6.77,90.69,9.76,89.56,13.61,89.56z"/>
	<path class="st2" d="M78.08,135.61c-7.7,0-14.03,2.48-18.98,7.45c-4.95,4.97-7.43,11.33-7.43,19.09c0,6.8,2.1,12.25,6.29,16.35
		c4.19,4.1,9.78,6.15,16.76,6.15c7.88,0,14.34-2.47,19.37-7.4c5.03-4.94,7.54-11.21,7.54-18.81c0-6.95-2.13-12.5-6.4-16.63
		C90.97,137.68,85.25,135.61,78.08,135.61z M84.55,168.73c-2.42,2.61-5.56,3.91-9.41,3.91c-3.1,0-5.55-0.95-7.33-2.84
		c-1.79-1.89-2.68-4.47-2.68-7.73c0-4.31,1.19-7.8,3.59-10.46c2.39-2.65,5.54-3.98,9.45-3.98c3.17,0.06,5.63,1.04,7.38,2.93
		c1.75,1.89,2.63,4.55,2.63,7.96C88.19,162.72,86.98,166.12,84.55,168.73z"/>
	<path class="st2" d="M161.88,157.64c0.53-3.82,0.79-6.58,0.79-8.29c0-4.31-1.37-7.68-4.12-10.11c-2.75-2.42-6.59-3.63-11.53-3.63
		c-3.04,0-5.93,0.7-8.66,2.1c-2.73,1.4-5.5,3.6-8.29,6.61l1.02-7.17h-12.2l-6.01,45.69h13.18l2.93-22.4
		c0.62-4.72,1.99-8.2,4.12-10.45s5.11-3.38,8.96-3.38c2.2,0,3.91,0.59,5.12,1.77c1.21,1.18,1.82,2.84,1.82,4.98
		c0,0.43-0.02,0.99-0.07,1.65c-0.04,0.67-0.12,1.45-0.21,2.35l-3.35,25.47h13.18l3.17-24.17
		C161.77,158.45,161.82,158.11,161.88,157.64z"/>
	<polygon class="st2" points="411.11,92.78 424.29,92.78 430.21,47.09 417.03,47.09 	"/>
	<path class="st2" d="M266.14,35.73l0.65-5.45c2.48,2.55,4.95,4.39,7.4,5.54c2.45,1.15,5.11,1.72,7.96,1.72
		c6.52,0,11.79-2.52,15.81-7.57c4.02-5.05,6.03-11.68,6.03-19.91c0-3.84-0.55-7.19-1.62-10.07h-44.71l-4.66,35.73H266.14z
		 M271.71,4.39c2.19-2.82,5.16-4.24,8.92-4.24c3.35,0,5.95,0.99,7.78,2.98c1.83,1.99,2.75,4.78,2.75,8.38
		c0,4.78-1.09,8.54-3.26,11.27c-2.17,2.73-5.15,4.1-8.94,4.1c-3.2,0-5.75-0.99-7.66-2.98c-1.91-1.99-2.86-4.63-2.86-7.92
		C268.43,11.08,269.52,7.21,271.71,4.39z"/>
	<path class="st2" d="M328.66,35.73l2.47-19.47c0.62-5.03,1.96-8.79,4.03-11.29c2.06-2.5,4.85-3.75,8.36-3.75
		c0.84,0,1.7,0.08,2.58,0.23c0.88,0.16,1.81,0.39,2.77,0.7L349.29,0h-29.11l-4.7,35.73H328.66z"/>
	<path class="st2" d="M362.79,31.84c3.24,3.8,7.78,5.7,13.62,5.7c3.07,0,5.77-0.57,8.1-1.72c2.33-1.15,4.27-2.87,5.82-5.17
		l-0.75,5.08h13.13L407.42,0h-19.57c1.08,0.49,2.04,1.16,2.86,2.04c1.86,2,2.79,4.77,2.79,8.31c0,4.66-1.08,8.4-3.24,11.22
		c-2.16,2.83-4.99,4.24-8.5,4.24c-3.38,0-6.06-0.99-8.03-2.98c-1.97-1.99-2.96-4.66-2.96-8.01c0-4.9,1.09-8.76,3.28-11.57
		c1.15-1.47,2.51-2.55,4.09-3.25H361.6c-2.44,4.44-3.68,9.7-3.68,15.8C357.93,22.69,359.55,28.04,362.79,31.84z"/>
	<path class="st2" d="M424.44,0l-4.7,35.73h13.18l2.93-22.4c0.62-4.72,2-8.2,4.12-10.45c0.07-0.07,0.15-0.13,0.22-0.21V0H424.44z"/>
	<path class="st2" d="M22.82,189.12H9.69l-3.73,27.06c-0.06,0.59-0.11,1.16-0.14,1.7c-0.03,0.54-0.05,1.06-0.05,1.56
		c0,0.31,0.02,0.82,0.05,1.51c0.03,0.7,0.05,1.25,0.05,1.65c-1.34-2.22-2.97-4.01-4.87-5.37v10.07c0.09,0.09,0.2,0.18,0.29,0.27
		c1.85,1.99,2.77,4.77,2.77,8.34c0,4.52-1.03,8.17-3.06,10.96v14.42h12.37L22.82,189.12z"/>
	<path class="st2" d="M22.96,293.95c0-6.95-2.13-12.5-6.4-16.63c-3.94-3.81-9.14-5.84-15.56-6.13v12.07
		c2.45,0.31,4.41,1.24,5.87,2.82c1.75,1.89,2.63,4.55,2.63,7.96c0,4.19-1.21,7.59-3.63,10.2c-1.39,1.49-3.02,2.54-4.87,3.18v12.38
		c5.68-0.84,10.49-3.19,14.42-7.04C20.45,307.83,22.96,301.55,22.96,293.95z"/>
	<path class="st2" d="M50.32,295.95c0.62-4.72,1.99-8.2,4.12-10.45c2.13-2.25,5.11-3.38,8.96-3.38c2.2,0,3.91,0.59,5.12,1.77
		c1.21,1.18,1.82,2.84,1.82,4.98c0,0.43-0.02,0.99-0.07,1.65c-0.04,0.67-0.12,1.45-0.21,2.35l-3.35,25.47h13.18l3.17-24.17
		c0.03-0.22,0.08-0.56,0.14-1.03c0.53-3.82,0.79-6.58,0.79-8.29c0-4.31-1.37-7.68-4.12-10.11c-2.75-2.42-6.59-3.63-11.53-3.63
		c-3.04,0-5.93,0.7-8.66,2.1c-2.73,1.4-5.5,3.6-8.29,6.61l1.02-7.17h-12.2l-6.01,45.69h13.18L50.32,295.95z"/>
	<path class="st2" d="M31.34,480.88c3.13,0,5.87-0.57,8.2-1.7s4.24-2.83,5.73-5.1l-0.65,5.08h13.13l9.45-72.18H54.07l-3.73,27.06
		c-0.06,0.59-0.11,1.16-0.14,1.7c-0.03,0.54-0.05,1.06-0.05,1.56c0,0.31,0.02,0.82,0.05,1.51c0.03,0.7,0.05,1.25,0.05,1.65
		c-1.71-2.82-3.86-4.95-6.47-6.38c-2.61-1.43-5.6-2.14-8.99-2.14c-6.4,0-11.65,2.55-15.76,7.66c-4.11,5.11-6.17,11.65-6.17,19.63
		c0,6.86,1.61,12.19,4.84,15.97C20.92,478.99,25.47,480.88,31.34,480.88z M28.99,446.72c2.19-2.84,5.16-4.26,8.92-4.26
		c3.32,0,5.91,0.99,7.75,2.98c1.85,1.99,2.77,4.77,2.77,8.34c0,4.66-1.08,8.4-3.24,11.22c-2.16,2.83-4.99,4.24-8.5,4.24
		c-3.38,0-6.06-0.98-8.03-2.93c-1.97-1.96-2.96-4.59-2.96-7.92C25.71,453.45,26.8,449.57,28.99,446.72z"/>
	<polygon class="st2" points="3.15,490.52 1,490.52 1,500.91 1.85,500.91 	"/>
	<path class="st2" d="M43.77,488.98c-7.7,0-14.03,2.48-18.98,7.45c-4.95,4.97-7.43,11.33-7.43,19.09c0,6.8,2.1,12.25,6.29,16.35
		c4.19,4.1,9.78,6.15,16.77,6.15c7.88,0,14.34-2.47,19.37-7.4c5.03-4.94,7.54-11.21,7.54-18.81c0-6.95-2.14-12.5-6.4-16.63
		C56.66,491.05,50.95,488.98,43.77,488.98z M50.25,522.1c-2.42,2.61-5.56,3.91-9.41,3.91c-3.1,0-5.55-0.95-7.33-2.84
		c-1.79-1.89-2.68-4.47-2.68-7.73c0-4.31,1.19-7.8,3.58-10.46c2.39-2.65,5.54-3.98,9.45-3.98c3.17,0.06,5.63,1.04,7.38,2.93
		c1.75,1.89,2.63,4.55,2.63,7.96C53.88,516.09,52.67,519.49,50.25,522.1z"/>
	<path class="st2" d="M124.24,492.62c-2.75-2.42-6.59-3.63-11.53-3.63c-3.04,0-5.93,0.7-8.66,2.1c-2.73,1.4-5.5,3.6-8.29,6.61
		l1.02-7.17h-12.2l-6.01,45.69h13.18l2.93-22.4c0.62-4.72,1.99-8.2,4.12-10.45s5.12-3.38,8.96-3.38c2.2,0,3.91,0.59,5.12,1.77
		c1.21,1.18,1.82,2.84,1.82,4.98c0,0.43-0.02,0.99-0.07,1.65c-0.05,0.67-0.12,1.45-0.21,2.35l-3.35,25.47h13.18l3.17-24.17
		c0.03-0.22,0.08-0.56,0.14-1.03c0.53-3.82,0.79-6.58,0.79-8.29C128.36,498.41,126.99,495.04,124.24,492.62z"/>
	<polygon class="st2" points="394.34,591.39 407.52,591.39 413.43,545.7 400.25,545.7 	"/>
	<path class="st2" d="M268.46,487.12c-2.48,0-4.93,0.53-7.33,1.58c-2.41,1.06-4.79,2.65-7.15,4.8c0.31-0.84,0.59-1.78,0.84-2.82
		c0.25-1.04,0.43-2.15,0.56-3.33l3.45-25.19h-13.18l-9.41,72.18h13.13l0.65-5.45c2.48,2.55,4.95,4.39,7.4,5.54
		c2.45,1.15,5.11,1.72,7.96,1.72c6.52,0,11.79-2.52,15.81-7.57s6.03-11.68,6.03-19.91c0-6.77-1.66-12.05-4.98-15.86
		C278.93,489.02,274.33,487.12,268.46,487.12z M271.12,521.4c-2.17,2.73-5.15,4.1-8.94,4.1c-3.2,0-5.75-0.99-7.66-2.98
		c-1.91-1.99-2.86-4.63-2.86-7.92c0-4.9,1.09-8.77,3.28-11.6c2.19-2.82,5.16-4.24,8.92-4.24c3.35,0,5.95,0.99,7.78,2.98
		c1.83,1.99,2.75,4.78,2.75,8.38C274.38,514.91,273.29,518.67,271.12,521.4z"/>
	<path class="st2" d="M330.56,487.12c-2.89,0-5.5,0.81-7.85,2.42c-2.34,1.61-4.34,3.99-5.98,7.12l1.16-8.01h-13.18l-6.01,45.68
		h13.18l2.47-19.47c0.62-5.03,1.96-8.79,4.03-11.29c2.06-2.5,4.85-3.75,8.36-3.75c0.84,0,1.7,0.08,2.58,0.23
		c0.88,0.16,1.81,0.39,2.77,0.7l2.56-13.18c-0.62-0.16-1.26-0.27-1.91-0.35C332.1,487.16,331.37,487.12,330.56,487.12z"/>
	<path class="st2" d="M378.03,495.04c-1.68-2.64-3.76-4.62-6.24-5.94c-2.48-1.32-5.36-1.98-8.62-1.98c-6.4,0-11.67,2.56-15.81,7.68
		c-4.15,5.12-6.22,11.66-6.22,19.61c0,6.89,1.62,12.24,4.87,16.04c3.24,3.8,7.78,5.7,13.62,5.7c3.07,0,5.77-0.57,8.1-1.72
		c2.33-1.15,4.27-2.87,5.82-5.17l-0.75,5.08h13.13l6.01-45.68h-13.13L378.03,495.04z M373.49,520.19c-2.16,2.83-4.99,4.24-8.5,4.24
		c-3.38,0-6.06-0.99-8.03-2.98c-1.97-1.99-2.96-4.66-2.96-8.01c0-4.9,1.09-8.76,3.28-11.57c2.19-2.81,5.16-4.21,8.92-4.21
		c3.29,0,5.87,1,7.73,3c1.86,2,2.79,4.77,2.79,8.31C376.73,513.62,375.65,517.36,373.49,520.19z"/>
	<path class="st2" d="M428.44,489.22c-2.73,1.4-5.5,3.6-8.29,6.61l1.02-7.17h-12.2l-6.01,45.68h13.18l2.93-22.4
		c0.62-4.72,2-8.2,4.12-10.45c2.13-2.25,5.11-3.38,8.96-3.38c2.2,0,3.91,0.59,5.12,1.77c1.21,1.18,1.82,2.84,1.82,4.98
		c0,0.44-0.02,0.99-0.07,1.65s-0.12,1.45-0.21,2.35l-3.35,25.47h0.01l-1.5,11.36h-8.66l-1.35,10.39h8.71l-4.7,35.3h12.21V487.31
		c-0.98-0.12-2-0.19-3.09-0.19C434.06,487.12,431.17,487.82,428.44,489.22z"/>
</g>
<g>
	<polygon class="st2" points="213.06,455.64 226.24,455.64 232.15,409.95 218.97,409.95 	"/>
	<path class="st2" d="M99.92,392.84c4.02-5.05,6.03-11.68,6.03-19.91c0-6.77-1.66-12.05-4.98-15.86c-3.32-3.8-7.92-5.71-13.79-5.71
		c-2.48,0-4.93,0.53-7.33,1.58c-2.41,1.06-4.79,2.65-7.15,4.8c0.31-0.84,0.59-1.78,0.84-2.82c0.25-1.04,0.43-2.15,0.56-3.33
		l3.45-25.19H64.37l-9.41,72.18h13.13l0.65-5.45c2.48,2.55,4.95,4.39,7.4,5.54c2.45,1.15,5.11,1.72,7.96,1.72
		C90.63,400.41,95.9,397.89,99.92,392.84z M73.24,386.76c-1.91-1.99-2.86-4.63-2.86-7.92c0-4.9,1.09-8.77,3.28-11.6
		c2.19-2.82,5.16-4.24,8.92-4.24c3.35,0,5.95,0.99,7.78,2.98c1.83,1.99,2.75,4.78,2.75,8.38c0,4.78-1.09,8.54-3.26,11.27
		c-2.17,2.73-5.15,4.1-8.94,4.1C77.7,389.74,75.15,388.75,73.24,386.76z"/>
	<path class="st2" d="M149.28,351.37c-2.89,0-5.5,0.81-7.85,2.42c-2.34,1.61-4.34,3.99-5.99,7.12l1.17-8.01h-13.18l-6.01,45.68
		h13.18l2.47-19.47c0.62-5.03,1.96-8.79,4.03-11.29c2.06-2.5,4.85-3.75,8.36-3.75c0.84,0,1.7,0.08,2.58,0.23
		c0.88,0.16,1.81,0.39,2.77,0.7l2.56-13.18c-0.62-0.16-1.26-0.27-1.91-0.35C150.82,351.41,150.09,351.37,149.28,351.37z"/>
	<path class="st2" d="M196.76,359.29c-1.68-2.64-3.76-4.62-6.24-5.94c-2.48-1.32-5.36-1.98-8.62-1.98c-6.4,0-11.67,2.56-15.81,7.68
		c-4.15,5.12-6.22,11.66-6.22,19.61c0,6.89,1.62,12.24,4.87,16.04c3.24,3.8,7.78,5.7,13.62,5.7c3.07,0,5.77-0.57,8.1-1.72
		c2.33-1.15,4.27-2.87,5.82-5.17l-0.75,5.08h13.13l6.01-45.68h-13.13L196.76,359.29z M192.22,384.44c-2.16,2.83-4.99,4.24-8.5,4.24
		c-3.38,0-6.06-0.99-8.03-2.98c-1.97-1.99-2.96-4.66-2.96-8.01c0-4.9,1.09-8.76,3.28-11.57c2.19-2.81,5.16-4.21,8.92-4.21
		c3.29,0,5.87,1,7.73,3c1.86,2,2.79,4.77,2.79,8.31C195.45,377.87,194.37,381.61,192.22,384.44z"/>
	<path class="st2" d="M290.61,359.03c-4.11,5.11-6.17,11.65-6.17,19.63c0,6.86,1.61,12.19,4.84,15.97
		c3.23,3.79,7.78,5.68,13.65,5.68c3.13,0,5.87-0.57,8.2-1.7c2.33-1.13,4.24-2.83,5.73-5.1l-0.65,5.08h13.13l9.45-72.18h-13.13
		l-3.73,27.06c-0.06,0.59-0.11,1.16-0.14,1.7c-0.03,0.54-0.05,1.06-0.05,1.56c0,0.31,0.01,0.82,0.05,1.51
		c0.03,0.7,0.05,1.25,0.05,1.65c-1.71-2.82-3.86-4.95-6.47-6.38c-2.61-1.43-5.6-2.14-8.99-2.14
		C299.98,351.37,294.72,353.92,290.61,359.03z M300.57,366.16c2.19-2.84,5.16-4.26,8.92-4.26c3.32,0,5.91,0.99,7.75,2.98
		c1.85,1.99,2.77,4.77,2.77,8.34c0,4.66-1.08,8.4-3.24,11.22c-2.16,2.83-4.99,4.24-8.5,4.24c-3.38,0-6.06-0.98-8.03-2.93
		c-1.97-1.96-2.96-4.59-2.96-7.92C297.29,372.89,298.39,369,300.57,366.16z"/>
	<path class="st2" d="M241.92,365.74c2.13-2.25,5.12-3.38,8.96-3.38c2.21,0,3.91,0.59,5.12,1.77c1.21,1.18,1.82,2.84,1.82,4.98
		c0,0.44-0.02,0.99-0.07,1.65c-0.05,0.67-0.12,1.45-0.21,2.35l-3.35,25.47h0.01l-1.5,11.36h-8.66l-1.35,10.39h8.71l-4.7,35.3h13.18
		l4.66-35.3h8.89l1.3-10.39h-8.85l2.09-15.18h-0.11l2.67-20.35c0.03-0.22,0.08-0.56,0.14-1.02c0.53-3.82,0.79-6.58,0.79-8.29
		c0-4.31-1.37-7.68-4.12-10.11c-2.75-2.42-6.59-3.63-11.53-3.63c-3.04,0-5.93,0.7-8.66,2.1c-2.73,1.4-5.5,3.6-8.29,6.61l1.03-7.17
		h-12.2l-6.01,45.68h13.18l2.93-22.4C238.42,371.47,239.8,367.99,241.92,365.74z"/>
	<path class="st2" d="M315.36,408.42c-7.7,0-14.03,2.48-18.98,7.45c-4.95,4.97-7.43,11.33-7.43,19.09c0,6.8,2.1,12.25,6.29,16.35
		c4.19,4.1,9.78,6.15,16.76,6.15c7.89,0,14.34-2.47,19.37-7.4c5.03-4.94,7.54-11.21,7.54-18.81c0-6.95-2.14-12.5-6.4-16.63
		C328.25,410.48,322.53,408.42,315.36,408.42z M321.83,441.53c-2.42,2.61-5.56,3.91-9.41,3.91c-3.1,0-5.55-0.95-7.33-2.84
		c-1.79-1.89-2.68-4.47-2.68-7.73c0-4.31,1.19-7.8,3.58-10.46c2.39-2.65,5.54-3.98,9.45-3.98c3.17,0.06,5.63,1.04,7.38,2.93
		c1.75,1.89,2.63,4.55,2.63,7.96C325.46,435.52,324.25,438.92,321.83,441.53z"/>
	<path class="st2" d="M366.28,433.24c0.62-4.72,1.99-8.2,4.12-10.45s5.11-3.38,8.96-3.38c2.2,0,3.91,0.59,5.12,1.77
		c1.21,1.18,1.82,2.84,1.82,4.98c0,0.43-0.02,0.99-0.07,1.65c-0.05,0.67-0.12,1.45-0.21,2.35l-3.35,25.47h13.18l3.17-24.17
		c0.03-0.22,0.08-0.56,0.14-1.03c0.53-3.82,0.79-6.58,0.79-8.29c0-4.31-1.37-7.68-4.12-10.11c-2.75-2.42-6.59-3.63-11.53-3.63
		c-3.04,0-5.93,0.7-8.66,2.1c-2.73,1.4-5.5,3.6-8.29,6.61l1.02-7.17h-12.2l-6.01,45.69h13.18L366.28,433.24z"/>
	<g>
		<g>
			<path class="st2" d="M220.59,473.03c0,2.1-1.46,3.21-3.8,3.21h-4.29v-11.21h3.93c2.34,0,3.8,1.04,3.8,3.05
				c0,1.21-0.64,2.08-1.46,2.37C219.83,470.8,220.59,471.84,220.59,473.03z M216.41,469.74c1.3,0,1.99-0.49,1.99-1.55
				c0-1.06-0.69-1.52-1.99-1.52h-2.06v3.07H216.41z M214.35,474.6h2.41c1.28,0,1.97-0.64,1.97-1.64c0-1.02-0.69-1.64-1.97-1.64
				h-2.41V474.6z"/>
			<path class="st2" d="M230.96,465.03h2.01l-4.07,6.74v4.48h-1.88v-4.48l-4.05-6.74h2.06l2.98,5.02L230.96,465.03z"/>
			<path class="st2" d="M242.17,476.24v-11.21h7.16v1.68h-5.26v3.32h4.91v1.66h-4.91v4.55H242.17z"/>
			<path class="st2" d="M260.36,465.03v1.68h-5.46v2.96h4.95v1.66h-4.95v3.21h5.46v1.7h-7.32v-11.21H260.36z"/>
			<path class="st2" d="M266.14,471.69v4.55h-1.9v-11.21h4.33c2.32,0,3.82,1.17,3.82,3.36c0,1.88-1.1,2.96-2.87,3.23l3.25,4.62
				h-2.16l-3.12-4.55H266.14z M266.14,470.11h2.39c1.26,0,1.97-0.68,1.97-1.72s-0.71-1.72-1.97-1.72h-2.39V470.11z"/>
			<path class="st2" d="M285.23,476.24h-1.46l-5.74-8.16v8.16h-1.83v-11.21h1.79l5.41,7.78v-7.78h1.83V476.24z"/>
			<path class="st2" d="M294.79,465.03l4.31,11.21h-1.94l-1.15-3.1h-4.29l-1.15,3.1h-1.92l4.31-11.21H294.79z M292.33,471.49h3.07
				l-1.54-4.15L292.33,471.49z"/>
			<path class="st2" d="M311.55,476.24h-1.46l-5.74-8.16v8.16h-1.83v-11.21h1.79l5.41,7.78v-7.78h1.83V476.24z"/>
			<path class="st2" d="M315.86,465.03h3.78c3.31,0,5.44,2.19,5.44,5.61s-2.14,5.61-5.44,5.61h-3.78V465.03z M319.57,474.54
				c2.36,0,3.62-1.52,3.62-3.91c0-2.41-1.26-3.93-3.62-3.93h-1.81v7.84H319.57z"/>
			<path class="st2" d="M333.59,465.03l4.31,11.21h-1.94l-1.15-3.1h-4.29l-1.15,3.1h-1.92l4.31-11.21H333.59z M331.12,471.49h3.07
				l-1.54-4.15L331.12,471.49z"/>
			<path class="st2" d="M352.08,476.24l-3.09-7.8v7.8h-1.81v-11.21h2.17l3.42,8.62l3.38-8.62h2.12v11.21h-1.83v-7.8l-3.01,7.8
				H352.08z"/>
			<path class="st2" d="M367.15,476.42c-3.03,0-5.17-2.45-5.17-5.79c0-3.36,2.14-5.79,5.17-5.79c3.03,0,5.19,2.43,5.19,5.79
				C372.33,473.98,370.18,476.42,367.15,476.42z M367.15,466.54c-1.97,0-3.25,1.72-3.25,4.09s1.28,4.09,3.25,4.09
				s3.27-1.72,3.27-4.09S369.12,466.54,367.15,466.54z"/>
			<path class="st2" d="M374.7,465.03h9.35v1.68h-3.73v9.53h-1.9v-9.53h-3.73V465.03z"/>
			<path class="st2" d="M391.83,465.03l4.31,11.21h-1.94l-1.15-3.1h-4.29l-1.15,3.1h-1.92l4.31-11.21H391.83z M389.36,471.49h3.07
				l-1.54-4.15L389.36,471.49z"/>
		</g>
	</g>
</g>
</svg>
