<?xml version="1.0" encoding="utf-8"?>
<!-- Generator: Adobe Illustrator 24.0.3, SVG Export Plug-In . SVG Version: 6.00 Build 0)  -->
<svg version="1.1" id="Layer_1" xmlns="http://www.w3.org/2000/svg" xmlns:xlink="http://www.w3.org/1999/xlink" x="0px" y="0px"
	 viewBox="0 0 1500 950" style="enable-background:new 0 0 1500 950;" xml:space="preserve">
<style type="text/css">
	.st0{fill:none;}
	.st1{fill:#92867F;}
	.st2{fill:#E8CDBD;}
	.st3{fill:#93867F;}
	.st4{fill:#E7CCBC;}
	.st5{clip-path:url(#SVGID_2_);}
	.st6{clip-path:url(#SVGID_4_);}
	.st7{clip-path:url(#SVGID_6_);}
</style>
<g>
	<polygon class="st2" points="431.54,113.87 410.32,113.87 400.79,187.45 422.02,187.45 	"/>
	<path class="st2" d="M167.29,95.57l1.05-8.78c4,4.1,7.98,7.08,11.92,8.93c3.95,1.85,8.23,2.78,12.83,2.78
		c10.5,0,18.99-4.06,25.46-12.19c6.48-8.13,9.71-18.82,9.71-32.07c0-10.9-2.68-19.42-8.03-25.54c-5.35-6.12-12.75-9.19-22.2-9.19
		c-4,0-7.94,0.85-11.81,2.55c-3.88,1.7-7.71,4.27-11.52,7.73c0.5-1.35,0.95-2.86,1.35-4.54c0.4-1.67,0.7-3.46,0.9-5.36L179.69,0
		h-21.1l-12.45,95.57H167.29z M176.25,45.09c3.53-4.55,8.31-6.82,14.36-6.82c5.4,0,9.58,1.6,12.53,4.8c2.95,3.2,4.42,7.7,4.42,13.5
		c0,7.7-1.75,13.75-5.25,18.15c-3.5,4.4-8.3,6.6-14.4,6.6c-5.15,0-9.26-1.6-12.34-4.8c-3.07-3.2-4.61-7.45-4.61-12.75
		C170.97,55.87,172.73,49.64,176.25,45.09z"/>
	<path class="st2" d="M271.96,64.22c1-8.1,3.16-14.16,6.49-18.19c3.32-4.02,7.81-6.04,13.46-6.04c1.35,0,2.74,0.12,4.16,0.37
		c1.43,0.25,2.91,0.63,4.46,1.12l4.12-21.23c-1-0.25-2.02-0.44-3.07-0.56c-1.05-0.12-2.23-0.19-3.53-0.19
		c-4.65,0-8.87,1.3-12.64,3.9c-3.78,2.6-6.99,6.43-9.64,11.48l1.88-12.9h-21.23l-9.68,73.58h21.23L271.96,64.22z"/>
	<path class="st2" d="M344.9,98.5c4.95,0,9.3-0.93,13.05-2.78c3.75-1.85,6.87-4.62,9.38-8.33l-1.2,8.18h21.15l9.68-73.58H375.8
		l-1.27,10.28c-2.7-4.25-6.05-7.44-10.05-9.56c-4-2.12-8.63-3.19-13.88-3.19c-10.3,0-18.79,4.13-25.46,12.38
		c-6.68,8.25-10.01,18.78-10.01,31.58c0,11.1,2.61,19.71,7.84,25.84C328.19,95.43,335.5,98.5,344.9,98.5z M341.11,43.25
		c3.53-4.52,8.31-6.79,14.37-6.79c5.3,0,9.45,1.61,12.45,4.84c3,3.23,4.5,7.69,4.5,13.39c0,7.5-1.74,13.53-5.21,18.08
		c-3.48,4.55-8.04,6.83-13.69,6.83c-5.45,0-9.77-1.6-12.94-4.8c-3.17-3.2-4.76-7.5-4.76-12.9
		C335.83,53.99,337.59,47.78,341.11,43.25z"/>
	<path class="st2" d="M575.92,25.62c-0.05,0.88-0.07,1.71-0.07,2.51c0,0.5,0.02,1.31,0.07,2.44c0.05,1.12,0.07,2.01,0.07,2.66
		c-2.75-4.55-6.22-7.98-10.43-10.28c-4.2-2.3-9.03-3.45-14.48-3.45c-10.3,0-18.77,4.11-25.39,12.34
		c-6.62,8.23-9.94,18.77-9.94,31.62c0,11.05,2.6,19.63,7.8,25.73c5.2,6.1,12.53,9.15,21.98,9.15c5.05,0,9.45-0.91,13.2-2.74
		c3.75-1.83,6.83-4.56,9.23-8.21l-1.05,8.18h21.15L600.58,0h-21.29l-3.15,22.89C576.04,23.84,575.97,24.75,575.92,25.62z
		 M567.85,72.77c-3.48,4.55-8.04,6.83-13.69,6.83c-5.45,0-9.77-1.58-12.94-4.73c-3.18-3.15-4.76-7.4-4.76-12.75
		c0-7.95,1.76-14.21,5.29-18.79c3.53-4.58,8.31-6.86,14.37-6.86c5.35,0,9.51,1.6,12.49,4.8c2.97,3.2,4.46,7.68,4.46,13.43
		C573.07,62.19,571.33,68.22,567.85,72.77z"/>
	<path class="st2" d="M489.25,89.42h-0.17l4.29-32.78c0.05-0.35,0.12-0.9,0.23-1.65c0.85-6.15,1.27-10.6,1.27-13.35
		c0-6.95-2.21-12.38-6.64-16.28c-4.42-3.9-10.61-5.85-18.57-5.85c-4.9,0-9.55,1.13-13.95,3.38c-4.4,2.25-8.85,5.8-13.35,10.65
		l1.65-11.55h-19.65l-9.68,73.58h21.23l4.72-36.08c1-7.6,3.21-13.21,6.64-16.84c3.43-3.63,8.24-5.44,14.44-5.44
		c3.55,0,6.3,0.95,8.25,2.85c1.95,1.9,2.93,4.58,2.93,8.03c0,0.7-0.04,1.59-0.11,2.66c-0.08,1.08-0.19,2.34-0.34,3.79l-5.4,41.03
		h0.02l-2.41,18.3H450.7l-2.18,16.73h14.03l-7.58,56.86h21.23l7.5-56.86h14.33l2.1-16.73h-14.25L489.25,89.42z"/>
	<path class="st2" d="M565.56,111.39c-12.4,0-22.59,4-30.57,12c-7.98,8-11.96,18.25-11.96,30.75c0,10.95,3.38,19.73,10.13,26.33
		c6.75,6.6,15.75,9.9,27,9.9c12.7,0,23.1-3.98,31.21-11.93c8.1-7.95,12.15-18.05,12.15-30.3c0-11.2-3.44-20.13-10.31-26.78
		C586.33,114.72,577.11,111.39,565.56,111.39z M575.99,164.73c-3.9,4.2-8.95,6.3-15.15,6.3c-5,0-8.94-1.52-11.81-4.58
		c-2.88-3.05-4.31-7.2-4.31-12.45c0-6.95,1.92-12.56,5.78-16.84c3.85-4.28,8.93-6.41,15.23-6.41c5.1,0.1,9.06,1.68,11.89,4.73
		c2.83,3.05,4.24,7.33,4.24,12.83C581.84,155.05,579.89,160.53,575.99,164.73z"/>
	<path class="st2" d="M695.17,117.24c-4.43-3.9-10.61-5.85-18.56-5.85c-4.9,0-9.55,1.12-13.95,3.38c-4.4,2.25-8.85,5.8-13.35,10.65
		l1.65-11.55H631.3l-9.68,73.59h21.23l4.73-36.08c1-7.6,3.21-13.21,6.64-16.84s8.24-5.44,14.44-5.44c3.55,0,6.3,0.95,8.25,2.85
		c1.95,1.9,2.93,4.58,2.93,8.03c0,0.7-0.04,1.59-0.11,2.66c-0.07,1.08-0.19,2.34-0.34,3.79l-5.4,41.03h21.23l5.1-38.93
		c0.05-0.35,0.12-0.9,0.22-1.65c0.85-6.15,1.28-10.6,1.28-13.35C701.81,126.57,699.6,121.14,695.17,117.24z"/>
	<polygon class="st2" points="215.14,248.43 193.91,248.43 184.39,322.02 205.61,322.02 	"/>
	<path class="st2" d="M11.87,188.8c0-10.9-2.67-19.42-8.02-25.54c-1.18-1.35-2.47-2.54-3.85-3.6v63.67
		c0.74-0.78,1.46-1.59,2.16-2.46C8.63,212.74,11.87,202.06,11.87,188.8z"/>
	<path class="st2" d="M62.05,180.59c3.32-4.02,7.81-6.04,13.46-6.04c1.35,0,2.74,0.12,4.16,0.37c1.43,0.25,2.91,0.63,4.46,1.12
		l4.13-21.23c-1-0.25-2.02-0.44-3.07-0.56c-1.05-0.12-2.23-0.19-3.53-0.19c-4.65,0-8.86,1.3-12.64,3.9
		c-3.78,2.6-6.99,6.43-9.64,11.48l1.88-12.9H40.03l-9.68,73.58h21.23l3.97-31.35C56.56,190.68,58.72,184.62,62.05,180.59z"/>
	<path class="st2" d="M128.5,233.06c4.95,0,9.3-0.93,13.05-2.78c3.75-1.85,6.87-4.63,9.38-8.33l-1.2,8.18h21.15l9.68-73.58H159.4
		l-1.27,10.28c-2.7-4.25-6.05-7.44-10.05-9.56c-4-2.12-8.63-3.19-13.88-3.19c-10.3,0-18.79,4.13-25.46,12.38
		c-6.68,8.25-10.01,18.78-10.01,31.58c0,11.1,2.61,19.71,7.84,25.84C111.78,230,119.1,233.06,128.5,233.06z M124.71,177.81
		c3.53-4.52,8.31-6.79,14.37-6.79c5.3,0,9.45,1.61,12.45,4.84c3,3.23,4.5,7.69,4.5,13.39c0,7.5-1.74,13.53-5.21,18.08
		c-3.48,4.55-8.04,6.83-13.69,6.83c-5.45,0-9.77-1.6-12.94-4.8c-3.18-3.2-4.76-7.5-4.76-12.9
		C119.42,188.55,121.19,182.34,124.71,177.81z"/>
	<path class="st2" d="M307.16,223.76c5.2,6.1,12.53,9.15,21.98,9.15c5.05,0,9.45-0.91,13.2-2.74c3.75-1.83,6.82-4.56,9.23-8.21
		l-1.05,8.18h21.15l15.23-116.27h-21.15l-6,43.58c-0.1,0.95-0.18,1.86-0.23,2.74c-0.05,0.88-0.07,1.71-0.07,2.51
		c0,0.5,0.02,1.31,0.07,2.44c0.05,1.12,0.07,2.01,0.07,2.66c-2.75-4.55-6.22-7.98-10.43-10.28c-4.2-2.3-9.03-3.45-14.48-3.45
		c-10.3,0-18.77,4.11-25.39,12.34c-6.62,8.23-9.94,18.77-9.94,31.62C299.36,209.08,301.96,217.66,307.16,223.76z M325.35,177.89
		c3.53-4.58,8.31-6.86,14.37-6.86c5.35,0,9.51,1.6,12.49,4.8c2.97,3.2,4.46,7.68,4.46,13.43c0,7.5-1.74,13.53-5.21,18.08
		c-3.48,4.55-8.04,6.83-13.69,6.83c-5.45,0-9.77-1.58-12.94-4.73c-3.17-3.15-4.76-7.4-4.76-12.75
		C320.06,188.73,321.82,182.47,325.35,177.89z"/>
	<path class="st2" d="M224.24,194.05c1-7.6,3.21-13.21,6.64-16.84c3.42-3.63,8.24-5.44,14.44-5.44c3.55,0,6.3,0.95,8.25,2.85
		c1.95,1.9,2.93,4.58,2.93,8.03c0,0.7-0.04,1.59-0.11,2.66c-0.08,1.08-0.19,2.34-0.34,3.79l-5.4,41.03h0.02l-2.41,18.3H234.3
		l-2.18,16.73h14.03l-7.57,56.86h21.23l7.5-56.86h14.33l2.1-16.73h-14.25l3.37-24.45h-0.17l4.29-32.78c0.05-0.35,0.12-0.9,0.23-1.65
		c0.85-6.15,1.27-10.6,1.27-13.35c0-6.95-2.21-12.38-6.64-16.28c-4.42-3.9-10.61-5.85-18.57-5.85c-4.9,0-9.55,1.13-13.95,3.38
		c-4.4,2.25-8.85,5.8-13.35,10.65l1.65-11.55h-19.65l-9.68,73.58h21.23L224.24,194.05z"/>
	<path class="st2" d="M387.12,282.71c0-11.2-3.44-20.13-10.31-26.78c-6.88-6.65-16.09-9.98-27.64-9.98c-12.4,0-22.59,4-30.57,12
		c-7.98,8-11.96,18.25-11.96,30.75c0,10.95,3.38,19.73,10.13,26.33c6.75,6.6,15.75,9.9,27,9.9c12.7,0,23.1-3.98,31.21-11.93
		C383.06,305.06,387.12,294.96,387.12,282.71z M359.59,299.29c-3.9,4.2-8.95,6.3-15.15,6.3c-5,0-8.94-1.52-11.81-4.58
		c-2.88-3.05-4.31-7.2-4.31-12.45c0-6.95,1.92-12.56,5.78-16.84c3.85-4.28,8.93-6.41,15.23-6.41c5.1,0.1,9.06,1.68,11.89,4.73
		c2.83,3.05,4.24,7.33,4.24,12.83C365.44,289.61,363.49,295.09,359.59,299.29z"/>
	<path class="st2" d="M478.77,251.81c-4.43-3.9-10.61-5.85-18.57-5.85c-4.9,0-9.55,1.12-13.95,3.38c-4.4,2.25-8.85,5.8-13.35,10.65
		l1.65-11.55H414.9l-9.68,73.59h21.23l4.73-36.08c1-7.6,3.21-13.21,6.64-16.84s8.24-5.44,14.44-5.44c3.55,0,6.3,0.95,8.25,2.85
		c1.95,1.9,2.93,4.58,2.93,8.03c0,0.7-0.04,1.59-0.11,2.66c-0.07,1.08-0.19,2.34-0.34,3.79l-5.4,41.03h21.23l5.1-38.93
		c0.05-0.35,0.12-0.9,0.22-1.65c0.85-6.15,1.28-10.6,1.28-13.35C485.41,261.13,483.2,255.71,478.77,251.81z"/>
	<polygon class="st2" points="885.57,176.96 906.8,176.96 916.33,103.37 895.1,103.37 	"/>
	<path class="st2" d="M652.07,85.07l1.05-8.78c4,4.1,7.98,7.08,11.93,8.93C669,87.07,673.27,88,677.88,88
		c10.5,0,18.99-4.06,25.46-12.19s9.71-18.82,9.71-32.07c0-10.9-2.67-19.42-8.02-25.54c-5.35-6.12-12.75-9.19-22.2-9.19
		c-4,0-7.94,0.85-11.81,2.55c-3.88,1.7-7.71,4.27-11.52,7.73c0.5-1.35,0.95-2.86,1.35-4.54c0.4-1.67,0.7-3.46,0.9-5.36L663.03,0
		h-21.03l-11.09,85.07H652.07z M661.04,34.59c3.53-4.55,8.31-6.82,14.36-6.82c5.4,0,9.58,1.6,12.53,4.8c2.95,3.2,4.42,7.7,4.42,13.5
		c0,7.7-1.75,13.75-5.25,18.15c-3.5,4.4-8.3,6.6-14.4,6.6c-5.15,0-9.26-1.6-12.34-4.8c-3.07-3.2-4.61-7.45-4.61-12.75
		C655.75,45.37,657.51,39.14,661.04,34.59z"/>
	<path class="st2" d="M780.86,29.87c1.43,0.25,2.91,0.63,4.46,1.12l4.13-21.23c-1-0.25-2.02-0.44-3.07-0.56
		c-1.05-0.12-2.23-0.19-3.53-0.19c-4.65,0-8.86,1.3-12.64,3.9c-3.78,2.6-6.99,6.43-9.64,11.48l1.88-12.9h-21.23l-9.68,73.58h21.23
		l3.97-31.35c1-8.1,3.16-14.16,6.49-18.19c3.32-4.02,7.81-6.04,13.46-6.04C778.04,29.49,779.43,29.62,780.86,29.87z"/>
	<path class="st2" d="M859.31,21.77c-2.7-4.25-6.05-7.44-10.05-9.56c-4-2.12-8.63-3.19-13.88-3.19c-10.3,0-18.79,4.13-25.46,12.38
		c-6.68,8.25-10.01,18.78-10.01,31.58c0,11.1,2.61,19.71,7.84,25.84c5.22,6.13,12.54,9.19,21.94,9.19c4.95,0,9.3-0.93,13.05-2.78
		c3.75-1.85,6.87-4.62,9.38-8.33l-1.2,8.18h21.15l9.68-73.58h-21.15L859.31,21.77z M852,62.27c-3.48,4.55-8.04,6.83-13.69,6.83
		c-5.45,0-9.77-1.6-12.94-4.8c-3.18-3.2-4.76-7.5-4.76-12.9c0-7.9,1.76-14.11,5.29-18.64c3.53-4.52,8.31-6.79,14.37-6.79
		c5.3,0,9.45,1.61,12.45,4.84c3,3.23,4.5,7.69,4.5,13.39C857.21,51.69,855.47,57.72,852,62.27z"/>
	<path class="st2" d="M1060.7,15.13c-0.05,0.88-0.07,1.71-0.07,2.51c0,0.5,0.02,1.31,0.07,2.44c0.05,1.12,0.07,2.01,0.07,2.66
		c-2.75-4.55-6.22-7.98-10.43-10.28c-4.2-2.3-9.03-3.45-14.48-3.45c-10.3,0-18.77,4.11-25.39,12.34
		c-6.62,8.23-9.94,18.77-9.94,31.62c0,11.05,2.6,19.63,7.8,25.73c5.2,6.1,12.53,9.15,21.98,9.15c5.05,0,9.45-0.91,13.2-2.74
		c3.75-1.83,6.82-4.56,9.23-8.21l-1.05,8.18h21.15L1083.99,0h-21.36l-1.71,12.39C1060.82,13.34,1060.75,14.25,1060.7,15.13z
		 M1052.63,62.27c-3.48,4.55-8.04,6.83-13.69,6.83c-5.45,0-9.77-1.58-12.94-4.73c-3.17-3.15-4.76-7.4-4.76-12.75
		c0-7.95,1.76-14.21,5.29-18.79c3.53-4.58,8.31-6.86,14.37-6.86c5.35,0,9.51,1.6,12.49,4.8c2.97,3.2,4.46,7.68,4.46,13.43
		C1057.85,51.69,1056.11,57.72,1052.63,62.27z"/>
	<path class="st2" d="M984.91,103.37h-14.25l3.37-24.45h-0.17l4.29-32.78c0.05-0.35,0.12-0.9,0.23-1.65
		c0.85-6.15,1.27-10.6,1.27-13.35c0-6.95-2.21-12.38-6.64-16.28c-4.42-3.9-10.61-5.85-18.57-5.85c-4.9,0-9.55,1.13-13.95,3.38
		c-4.4,2.25-8.85,5.8-13.35,10.65l1.65-11.55h-19.65l-9.68,73.58h21.23l4.72-36.08c1-7.6,3.21-13.21,6.64-16.84
		c3.42-3.63,8.24-5.44,14.44-5.44c3.55,0,6.3,0.95,8.25,2.85c1.95,1.9,2.93,4.58,2.93,8.03c0,0.7-0.04,1.59-0.11,2.66
		c-0.08,1.08-0.19,2.34-0.34,3.79l-5.4,41.03h0.02l-2.41,18.3h-13.95l-2.18,16.73h14.03l-7.57,56.86h21.23l7.5-56.86h14.33
		L984.91,103.37z"/>
	<path class="st2" d="M1050.34,100.9c-12.4,0-22.59,4-30.57,12c-7.98,8-11.96,18.25-11.96,30.75c0,10.95,3.38,19.73,10.13,26.33
		c6.75,6.6,15.75,9.9,27,9.9c12.7,0,23.1-3.98,31.21-11.93c8.1-7.95,12.15-18.05,12.15-30.3c0-11.2-3.44-20.13-10.31-26.78
		C1071.11,104.22,1061.9,100.9,1050.34,100.9z M1060.77,154.23c-3.9,4.2-8.95,6.3-15.15,6.3c-5,0-8.94-1.52-11.81-4.58
		c-2.88-3.05-4.31-7.2-4.31-12.45c0-6.95,1.92-12.56,5.77-16.84c3.85-4.28,8.93-6.41,15.23-6.41c5.1,0.1,9.06,1.68,11.89,4.73
		c2.83,3.05,4.24,7.33,4.24,12.83C1066.62,144.55,1064.67,150.03,1060.77,154.23z"/>
	<path class="st2" d="M1179.95,106.75c-4.43-3.9-10.61-5.85-18.57-5.85c-4.9,0-9.55,1.12-13.95,3.38c-4.4,2.25-8.85,5.8-13.35,10.65
		l1.65-11.55h-19.65l-9.68,73.59h21.23l4.73-36.08c1-7.6,3.21-13.21,6.64-16.84c3.43-3.63,8.24-5.44,14.44-5.44
		c3.55,0,6.3,0.95,8.25,2.85c1.95,1.9,2.93,4.58,2.93,8.03c0,0.7-0.04,1.59-0.11,2.66c-0.07,1.08-0.19,2.34-0.34,3.79l-5.4,41.03
		h21.23l5.1-38.93c0.05-0.35,0.12-0.9,0.22-1.65c0.85-6.15,1.28-10.6,1.28-13.35C1186.59,116.07,1184.38,110.65,1179.95,106.75z"/>
	<polygon class="st2" points="57.65,540.29 78.88,540.29 88.41,466.7 67.18,466.7 	"/>
	<path class="st2" d="M14.81,448.56c3.75-1.85,6.87-4.62,9.38-8.33l-1.2,8.18h21.15l9.68-73.58H32.67l-1.27,10.28
		c-2.7-4.25-6.05-7.44-10.05-9.56c-4-2.12-8.63-3.19-13.88-3.19c-2.6,0-5.09,0.27-7.46,0.79v20.76c3.27-3.05,7.37-4.6,12.34-4.6
		c5.3,0,9.45,1.61,12.45,4.84c3,3.23,4.5,7.69,4.5,13.39c0,7.5-1.74,13.53-5.21,18.08c-3.48,4.55-8.04,6.83-13.69,6.83
		c-4.11,0-7.57-0.91-10.39-2.73v21.6c0.58,0.02,1.17,0.04,1.76,0.04C6.71,451.33,11.06,450.41,14.81,448.56z"/>
	<path class="st2" d="M180.42,442.03c5.2,6.1,12.53,9.15,21.98,9.15c5.05,0,9.45-0.91,13.2-2.74c3.75-1.83,6.82-4.56,9.23-8.21
		l-1.05,8.18h21.15l15.23-116.27H239l-6,43.58c-0.1,0.95-0.18,1.86-0.23,2.74c-0.05,0.88-0.07,1.71-0.07,2.51
		c0,0.5,0.02,1.31,0.07,2.44c0.05,1.12,0.07,2.01,0.07,2.66c-2.75-4.55-6.22-7.98-10.43-10.28c-4.2-2.3-9.03-3.45-14.48-3.45
		c-10.3,0-18.77,4.11-25.39,12.34c-6.62,8.23-9.94,18.77-9.94,31.62C172.62,427.35,175.22,435.93,180.42,442.03z M198.61,396.16
		c3.53-4.58,8.31-6.86,14.37-6.86c5.35,0,9.51,1.6,12.49,4.8c2.97,3.2,4.46,7.68,4.46,13.43c0,7.5-1.74,13.53-5.21,18.08
		c-3.48,4.55-8.04,6.83-13.69,6.83c-5.45,0-9.77-1.58-12.94-4.73c-3.17-3.15-4.76-7.4-4.76-12.75
		C193.32,407,195.09,400.74,198.61,396.16z"/>
	<path class="st2" d="M133.06,540.29l7.5-56.86h14.33l2.1-16.73h-14.25l3.37-24.45h-0.17l4.29-32.78c0.05-0.35,0.12-0.9,0.23-1.65
		c0.85-6.15,1.27-10.6,1.27-13.35c0-6.95-2.21-12.38-6.64-16.28c-4.42-3.9-10.61-5.85-18.57-5.85c-4.9,0-9.55,1.13-13.95,3.38
		c-4.4,2.25-8.85,5.8-13.35,10.65l1.65-11.55H81.23l-9.68,73.58h21.23l4.72-36.08c1-7.6,3.21-13.21,6.64-16.84
		c3.42-3.63,8.24-5.44,14.44-5.44c3.55,0,6.3,0.95,8.25,2.85c1.95,1.9,2.93,4.58,2.93,8.03c0,0.7-0.04,1.59-0.11,2.66
		c-0.08,1.08-0.19,2.34-0.34,3.79l-5.4,41.03h0.02l-2.41,18.3h-13.95l-2.18,16.73h14.03l-7.57,56.86H133.06z"/>
	<path class="st2" d="M222.42,464.23c-12.4,0-22.59,4-30.57,12c-7.98,8-11.96,18.25-11.96,30.75c0,10.95,3.38,19.73,10.13,26.33
		c6.75,6.6,15.75,9.9,27,9.9c12.7,0,23.1-3.98,31.2-11.93c8.1-7.95,12.15-18.05,12.15-30.3c0-11.2-3.44-20.13-10.31-26.78
		C243.19,467.56,233.98,464.23,222.42,464.23z M232.85,517.56c-3.9,4.2-8.95,6.3-15.15,6.3c-5,0-8.94-1.52-11.81-4.58
		c-2.88-3.05-4.31-7.2-4.31-12.45c0-6.95,1.92-12.56,5.77-16.84c3.85-4.28,8.93-6.41,15.23-6.41c5.1,0.1,9.06,1.68,11.89,4.73
		c2.83,3.05,4.24,7.33,4.24,12.83C238.7,507.89,236.75,513.36,232.85,517.56z"/>
	<path class="st2" d="M336.24,499.26l-5.4,41.03h21.23l5.1-38.93c0.05-0.35,0.12-0.9,0.22-1.65c0.85-6.15,1.28-10.6,1.28-13.35
		c0-6.95-2.21-12.38-6.64-16.28c-4.43-3.9-10.61-5.85-18.57-5.85c-4.9,0-9.55,1.12-13.95,3.38c-4.4,2.25-8.85,5.8-13.35,10.65
		l1.65-11.55h-19.65l-9.68,73.59h21.23l4.73-36.08c1-7.6,3.21-13.21,6.64-16.84c3.43-3.63,8.24-5.44,14.44-5.44
		c3.55,0,6.3,0.95,8.25,2.85c1.95,1.9,2.93,4.58,2.93,8.03c0,0.7-0.04,1.59-0.11,2.66C336.51,496.55,336.39,497.81,336.24,499.26z"
		/>
	<polygon class="st2" points="129.12,891.19 150.35,891.19 159.88,817.6 138.65,817.6 	"/>
	<path class="st2" d="M6.79,749.76c3.32-4.02,7.81-6.04,13.46-6.04c1.35,0,2.74,0.12,4.16,0.37c1.43,0.25,2.91,0.63,4.46,1.12
		L33,724c-1-0.25-2.02-0.44-3.07-0.56c-1.05-0.12-2.23-0.19-3.53-0.19c-4.65,0-8.86,1.3-12.64,3.9c-3.78,2.6-6.99,6.43-9.64,11.48
		L6,725.72H0v44.56l0.3-2.33C1.3,759.85,3.46,753.79,6.79,749.76z"/>
	<path class="st2" d="M102.87,736c-2.7-4.25-6.05-7.44-10.05-9.56c-4-2.12-8.63-3.19-13.88-3.19c-10.3,0-18.79,4.13-25.46,12.38
		c-6.68,8.25-10.01,18.78-10.01,31.58c0,11.1,2.61,19.71,7.84,25.84c5.22,6.13,12.54,9.19,21.94,9.19c4.95,0,9.3-0.93,13.05-2.78
		c3.75-1.85,6.87-4.62,9.38-8.33l-1.2,8.18h21.15l9.68-73.58h-21.15L102.87,736z M95.55,776.5c-3.48,4.55-8.04,6.83-13.69,6.83
		c-5.45,0-9.77-1.6-12.94-4.8c-3.18-3.2-4.76-7.5-4.76-12.9c0-7.9,1.76-14.11,5.29-18.64c3.53-4.52,8.31-6.79,14.37-6.79
		c5.3,0,9.45,1.61,12.45,4.84c3,3.23,4.5,7.69,4.5,13.39C100.76,765.93,99.03,771.95,95.55,776.5z"/>
	<path class="st2" d="M273.87,802.08c5.05,0,9.45-0.91,13.2-2.74c3.75-1.83,6.82-4.56,9.23-8.21l-1.05,8.18h21.15l15.23-116.27
		h-21.15l-6,43.58c-0.1,0.95-0.18,1.86-0.23,2.74c-0.05,0.88-0.07,1.71-0.07,2.51c0,0.5,0.02,1.31,0.07,2.44
		c0.05,1.12,0.07,2.01,0.07,2.66c-2.75-4.55-6.22-7.98-10.43-10.28c-4.2-2.3-9.03-3.45-14.48-3.45c-10.3,0-18.77,4.11-25.39,12.34
		c-6.62,8.23-9.94,18.77-9.94,31.62c0,11.05,2.6,19.63,7.8,25.73C257.1,799.03,264.42,802.08,273.87,802.08z M270.08,747.06
		c3.53-4.58,8.31-6.86,14.37-6.86c5.35,0,9.51,1.6,12.49,4.8c2.97,3.2,4.46,7.68,4.46,13.43c0,7.5-1.74,13.53-5.21,18.08
		c-3.48,4.55-8.04,6.83-13.69,6.83c-5.45,0-9.77-1.58-12.94-4.73c-3.17-3.15-4.76-7.4-4.76-12.75
		C264.8,757.9,266.56,751.64,270.08,747.06z"/>
	<path class="st2" d="M217.59,793.15h-0.17l4.29-32.78c0.05-0.35,0.12-0.9,0.23-1.65c0.85-6.15,1.27-10.6,1.27-13.35
		c0-6.95-2.21-12.38-6.64-16.28c-4.42-3.9-10.61-5.85-18.57-5.85c-4.9,0-9.55,1.13-13.95,3.38c-4.4,2.25-8.85,5.8-13.35,10.65
		l1.65-11.55H152.7l-9.68,73.58h21.23l4.72-36.08c1-7.6,3.21-13.21,6.64-16.84c3.42-3.63,8.24-5.44,14.44-5.44
		c3.55,0,6.3,0.95,8.25,2.85c1.95,1.9,2.93,4.58,2.93,8.03c0,0.7-0.04,1.59-0.11,2.66c-0.08,1.08-0.19,2.34-0.34,3.79l-5.4,41.03
		h0.02l-2.41,18.3h-13.95l-2.18,16.73h14.03l-7.57,56.86h21.23l7.5-56.86h14.33l2.1-16.73h-14.25L217.59,793.15z"/>
	<path class="st2" d="M293.9,815.13c-12.4,0-22.59,4-30.57,12c-7.98,8-11.96,18.25-11.96,30.75c0,10.95,3.38,19.73,10.13,26.33
		c6.75,6.6,15.75,9.9,27,9.9c12.7,0,23.1-3.98,31.21-11.93c8.1-7.95,12.15-18.05,12.15-30.3c0-11.2-3.44-20.13-10.31-26.78
		C314.66,818.46,305.45,815.13,293.9,815.13z M304.32,868.46c-3.9,4.2-8.95,6.3-15.15,6.3c-5,0-8.94-1.52-11.81-4.58
		c-2.88-3.05-4.31-7.2-4.31-12.45c0-6.95,1.92-12.56,5.78-16.84c3.85-4.28,8.93-6.41,15.23-6.41c5.1,0.1,9.06,1.68,11.89,4.73
		c2.83,3.05,4.24,7.33,4.24,12.83C310.18,858.78,308.23,864.26,304.32,868.46z"/>
	<path class="st2" d="M423.51,820.98c-4.43-3.9-10.61-5.85-18.57-5.85c-4.9,0-9.55,1.12-13.95,3.38c-4.4,2.25-8.85,5.8-13.35,10.65
		l1.65-11.55h-19.65l-9.68,73.59h21.23l4.73-36.08c1-7.6,3.21-13.21,6.64-16.84c3.43-3.63,8.24-5.44,14.44-5.44
		c3.55,0,6.3,0.95,8.25,2.85c1.95,1.9,2.93,4.58,2.93,8.03c0,0.7-0.04,1.59-0.11,2.66c-0.07,1.08-0.19,2.34-0.34,3.79l-5.4,41.03
		h21.23l5.1-38.93c0.05-0.35,0.12-0.9,0.22-1.65c0.85-6.15,1.28-10.6,1.28-13.35C430.15,830.31,427.93,824.88,423.51,820.98z"/>
	<polygon class="st2" points="868.08,906.49 862.45,950 883.67,950 889.31,906.49 	"/>
	<path class="st2" d="M655.81,812.13c-4,0-7.94,0.85-11.81,2.55c-3.88,1.7-7.71,4.27-11.52,7.73c0.5-1.35,0.95-2.86,1.35-4.54
		c0.4-1.67,0.7-3.46,0.9-5.36l5.55-40.58h-21.23L603.9,888.19h21.15l1.05-8.78c4,4.1,7.98,7.08,11.92,8.93
		c3.95,1.85,8.23,2.78,12.83,2.78c10.5,0,18.99-4.06,25.46-12.19c6.48-8.13,9.71-18.82,9.71-32.07c0-10.9-2.67-19.42-8.03-25.54
		C672.66,815.2,665.26,812.13,655.81,812.13z M660.08,867.34c-3.5,4.4-8.3,6.6-14.4,6.6c-5.15,0-9.26-1.6-12.34-4.8
		c-3.07-3.2-4.61-7.45-4.61-12.75c0-7.9,1.76-14.13,5.29-18.68c3.53-4.55,8.31-6.82,14.36-6.82c5.4,0,9.58,1.6,12.53,4.8
		c2.95,3.2,4.42,7.7,4.42,13.5C665.34,856.89,663.58,862.94,660.08,867.34z"/>
	<path class="st2" d="M755.83,812.13c-4.65,0-8.86,1.3-12.64,3.9c-3.78,2.6-6.99,6.43-9.64,11.48l1.88-12.9H714.2l-9.68,73.58h21.23
		l3.97-31.35c1-8.1,3.16-14.16,6.49-18.19c3.32-4.02,7.81-6.04,13.46-6.04c1.35,0,2.74,0.12,4.16,0.37
		c1.43,0.25,2.91,0.63,4.46,1.12l4.13-21.23c-1-0.25-2.02-0.44-3.07-0.56C758.3,812.19,757.13,812.13,755.83,812.13z"/>
	<path class="st2" d="M832.29,824.88c-2.7-4.25-6.05-7.44-10.05-9.56c-4-2.12-8.63-3.19-13.88-3.19c-10.3,0-18.79,4.13-25.46,12.38
		c-6.68,8.25-10.01,18.78-10.01,31.58c0,11.1,2.61,19.71,7.84,25.84c5.22,6.13,12.54,9.19,21.94,9.19c4.95,0,9.3-0.93,13.05-2.78
		c3.75-1.85,6.87-4.62,9.38-8.33l-1.2,8.18h21.15l9.68-73.58h-21.15L832.29,824.88z M824.98,865.39c-3.48,4.55-8.04,6.83-13.69,6.83
		c-5.45,0-9.77-1.6-12.94-4.8c-3.18-3.2-4.76-7.5-4.76-12.9c0-7.9,1.76-14.11,5.29-18.64c3.53-4.52,8.31-6.79,14.37-6.79
		c5.3,0,9.45,1.61,12.45,4.84c3,3.23,4.5,7.69,4.5,13.39C830.19,854.81,828.45,860.84,824.98,865.39z"/>
	<path class="st2" d="M1033.91,815.51c-0.1,0.95-0.18,1.86-0.23,2.74c-0.05,0.88-0.07,1.71-0.07,2.51c0,0.5,0.02,1.31,0.07,2.44
		c0.05,1.12,0.07,2.01,0.07,2.66c-2.75-4.55-6.22-7.98-10.43-10.28c-4.2-2.3-9.03-3.45-14.48-3.45c-10.3,0-18.77,4.11-25.39,12.34
		c-6.62,8.23-9.94,18.77-9.94,31.62c0,11.05,2.6,19.63,7.8,25.73c5.2,6.1,12.53,9.15,21.98,9.15c5.05,0,9.45-0.91,13.2-2.74
		c3.75-1.83,6.82-4.56,9.23-8.21l-1.05,8.18h21.15l15.23-116.27h-21.15L1033.91,815.51z M1025.62,865.39
		c-3.48,4.55-8.04,6.83-13.69,6.83c-5.45,0-9.77-1.58-12.94-4.73c-3.17-3.15-4.76-7.4-4.76-12.75c0-7.95,1.76-14.21,5.29-18.79
		c3.53-4.58,8.31-6.86,14.37-6.86c5.35,0,9.51,1.6,12.49,4.8c2.97,3.2,4.46,7.68,4.46,13.43
		C1030.83,854.81,1029.09,860.84,1025.62,865.39z"/>
	<path class="st2" d="M955.79,923.22l2.1-16.73h-14.25l3.37-24.45h-0.17l4.29-32.78c0.05-0.35,0.12-0.9,0.23-1.65
		c0.85-6.15,1.27-10.6,1.27-13.35c0-6.95-2.21-12.38-6.64-16.28c-4.42-3.9-10.61-5.85-18.57-5.85c-4.9,0-9.55,1.13-13.95,3.38
		c-4.4,2.25-8.85,5.8-13.35,10.65l1.65-11.55h-19.65l-9.68,73.58h21.23l4.72-36.08c1-7.6,3.21-13.21,6.64-16.84
		c3.42-3.63,8.24-5.44,14.44-5.44c3.55,0,6.3,0.95,8.25,2.85c1.95,1.9,2.93,4.58,2.93,8.03c0,0.7-0.04,1.59-0.11,2.66
		c-0.08,1.08-0.19,2.34-0.34,3.79l-5.4,41.03h0.02l-2.41,18.3h-13.95l-2.18,16.73h14.03L916.75,950h21.19l3.53-26.78H955.79z"/>
	<path class="st2" d="M1050.97,913.99c-6.88-6.65-16.09-9.98-27.64-9.98c-12.4,0-22.59,4-30.57,12c-7.98,8-11.96,18.25-11.96,30.75
		c0,1.1,0.04,2.17,0.11,3.23h21.8c-0.15-1.07-0.23-2.19-0.23-3.38c0-6.95,1.92-12.56,5.77-16.84c3.85-4.28,8.93-6.41,15.23-6.41
		c5.1,0.1,9.06,1.68,11.89,4.73c2.83,3.05,4.24,7.33,4.24,12.83c0,3.34-0.48,6.36-1.44,9.08h22.26c0.56-2.93,0.85-6,0.85-9.23
		C1061.28,929.57,1057.84,920.64,1050.97,913.99z"/>
	<path class="st2" d="M1158.3,939.49c0.85-6.15,1.28-10.6,1.28-13.35c0-6.95-2.21-12.38-6.64-16.28c-4.43-3.9-10.61-5.85-18.57-5.85
		c-4.9,0-9.55,1.12-13.95,3.38c-4.4,2.25-8.85,5.8-13.35,10.65l1.65-11.55h-19.65l-5.72,43.51h21.21l0.79-6.01
		c1-7.6,3.21-13.21,6.64-16.84s8.24-5.44,14.44-5.44c3.55,0,6.3,0.95,8.25,2.85c1.95,1.9,2.93,4.58,2.93,8.03
		c0,0.7-0.04,1.59-0.11,2.66c-0.07,1.08-0.19,2.34-0.34,3.79L1135.7,950h21.21l1.16-8.86
		C1158.12,940.79,1158.2,940.24,1158.3,939.49z"/>
</g>
<g>
	<g>
		<g>
			<path class="st2" d="M577.67,791.28c0,3.43-2.39,5.25-6.2,5.25h-7.01v-18.32h6.41c3.82,0,6.21,1.7,6.21,4.98
				c0,1.97-1.04,3.4-2.39,3.88C576.42,787.64,577.67,789.34,577.67,791.28z M570.84,785.91c2.12,0,3.25-0.8,3.25-2.54
				s-1.13-2.48-3.25-2.48h-3.37v5.01H570.84z M567.47,793.84h3.94c2.09,0,3.22-1.04,3.22-2.68c0-1.67-1.13-2.69-3.22-2.69h-3.94
				V793.84z"/>
			<path class="st2" d="M594.61,778.21h3.28l-6.65,11.01v7.31h-3.07v-7.31l-6.62-11.01h3.37l4.86,8.2L594.61,778.21z"/>
			<path class="st2" d="M612.92,796.53v-18.32h11.69v2.75h-8.59v5.43h8.02v2.71h-8.02v7.43H612.92z"/>
			<path class="st2" d="M642.62,778.21v2.75h-8.92v4.83h8.08v2.71h-8.08v5.25h8.92v2.77h-11.96v-18.32H642.62z"/>
			<path class="st2" d="M652.08,789.1v7.43h-3.1v-18.32h7.07c3.79,0,6.23,1.91,6.23,5.49c0,3.07-1.79,4.83-4.68,5.28l5.31,7.55
				h-3.52l-5.1-7.43H652.08z M652.08,786.5h3.91c2.06,0,3.22-1.1,3.22-2.8s-1.16-2.8-3.22-2.8h-3.91V786.5z"/>
			<path class="st2" d="M683.25,796.53h-2.39l-9.37-13.33v13.33h-2.98v-18.32h2.92l8.83,12.71v-12.71h2.98V796.53z"/>
			<path class="st2" d="M698.87,778.21l7.04,18.32h-3.16l-1.88-5.07h-7.01l-1.88,5.07h-3.13l7.04-18.32H698.87z M694.84,788.77h5.01
				l-2.51-6.77L694.84,788.77z"/>
			<path class="st2" d="M726.25,796.53h-2.39l-9.37-13.33v13.33h-2.98v-18.32h2.92l8.83,12.71v-12.71h2.98V796.53z"/>
			<path class="st2" d="M733.29,778.21h6.17c5.4,0,8.89,3.58,8.89,9.16s-3.49,9.16-8.89,9.16h-6.17V778.21z M739.34,793.75
				c3.85,0,5.91-2.48,5.91-6.38c0-3.94-2.06-6.41-5.91-6.41h-2.95v12.8H739.34z"/>
			<path class="st2" d="M762.25,778.21l7.04,18.32h-3.16l-1.88-5.07h-7.01l-1.88,5.07h-3.13l7.04-18.32H762.25z M758.22,788.77h5.01
				l-2.51-6.77L758.22,788.77z"/>
			<path class="st2" d="M792.46,796.53l-5.04-12.74v12.74h-2.95v-18.32h3.55l5.58,14.08l5.52-14.08h3.46v18.32h-2.98v-12.74
				l-4.92,12.74H792.46z"/>
			<path class="st2" d="M817.06,796.83c-4.95,0-8.44-4-8.44-9.46c0-5.49,3.49-9.46,8.44-9.46s8.47,3.97,8.47,9.46
				C825.54,792.83,822.02,796.83,817.06,796.83z M817.06,780.69c-3.22,0-5.31,2.8-5.31,6.68s2.09,6.68,5.31,6.68s5.34-2.8,5.34-6.68
				S820.29,780.69,817.06,780.69z"/>
			<path class="st2" d="M829.41,778.21h15.27v2.75h-6.08v15.57h-3.1v-15.57h-6.09V778.21z"/>
			<path class="st2" d="M857.39,778.21l7.04,18.32h-3.16l-1.88-5.07h-7.01l-1.88,5.07h-3.13l7.04-18.32H857.39z M853.36,788.77h5.01
				l-2.51-6.77L853.36,788.77z"/>
		</g>
	</g>
	<g>
		<polygon class="st2" points="566.57,761.42 576.1,687.83 597.32,687.83 587.8,761.42 		"/>
		<g>
			<path class="st2" d="M363.82,593.48c-4,0-7.94,0.85-11.81,2.55c-3.88,1.7-7.71,4.27-11.52,7.73c0.5-1.35,0.95-2.86,1.35-4.54
				c0.4-1.67,0.7-3.46,0.9-5.36l5.55-40.58h-21.23l-15.15,116.27h21.15l1.05-8.78c4,4.1,7.98,7.08,11.93,8.93
				c3.95,1.85,8.23,2.78,12.83,2.78c10.5,0,18.99-4.06,25.46-12.19c6.48-8.13,9.71-18.82,9.71-32.07c0-10.9-2.68-19.42-8.03-25.54
				C380.68,596.54,373.28,593.48,363.82,593.48z M368.1,648.68c-3.5,4.4-8.3,6.6-14.4,6.6c-5.15,0-9.26-1.6-12.34-4.8
				c-3.07-3.2-4.61-7.45-4.61-12.75c0-7.9,1.76-14.13,5.29-18.68c3.53-4.55,8.31-6.82,14.36-6.82c5.4,0,9.58,1.6,12.53,4.8
				c2.95,3.2,4.42,7.7,4.42,13.5C373.35,638.23,371.6,644.28,368.1,648.68z"/>
			<path class="st2" d="M463.84,593.48c-4.65,0-8.86,1.3-12.64,3.9c-3.78,2.6-6.99,6.43-9.64,11.48l1.88-12.9h-21.23l-9.68,73.58
				h21.23l3.97-31.35c1-8.1,3.16-14.16,6.49-18.19c3.32-4.02,7.81-6.04,13.46-6.04c1.35,0,2.74,0.12,4.16,0.37
				c1.43,0.25,2.91,0.63,4.46,1.12l4.13-21.23c-1-0.25-2.02-0.44-3.07-0.56C466.32,593.54,465.14,593.48,463.84,593.48z"/>
			<path class="st2" d="M540.31,606.23c-2.7-4.25-6.05-7.44-10.05-9.56c-4-2.12-8.63-3.19-13.88-3.19
				c-10.3,0-18.79,4.13-25.46,12.38c-6.68,8.25-10.01,18.78-10.01,31.58c0,11.1,2.61,19.71,7.84,25.84
				c5.22,6.13,12.54,9.19,21.94,9.19c4.95,0,9.3-0.93,13.05-2.78c3.75-1.85,6.87-4.62,9.38-8.33l-1.2,8.18h21.15l9.68-73.58h-21.15
				L540.31,606.23z M533,646.73c-3.48,4.55-8.04,6.83-13.69,6.83c-5.45,0-9.77-1.6-12.94-4.8c-3.17-3.2-4.76-7.5-4.76-12.9
				c0-7.9,1.76-14.11,5.29-18.64c3.53-4.52,8.31-6.79,14.37-6.79c5.3,0,9.45,1.61,12.45,4.84c3,3.23,4.5,7.69,4.5,13.39
				C538.21,636.16,536.47,642.18,533,646.73z"/>
			<path class="st2" d="M747.92,553.27l-6,43.58c-0.1,0.95-0.18,1.86-0.23,2.74c-0.05,0.88-0.07,1.71-0.07,2.51
				c0,0.5,0.02,1.31,0.07,2.44c0.05,1.12,0.07,2.01,0.07,2.66c-2.75-4.55-6.22-7.98-10.43-10.28c-4.2-2.3-9.03-3.45-14.48-3.45
				c-10.3,0-18.77,4.11-25.39,12.34c-6.62,8.23-9.94,18.77-9.94,31.62c0,11.05,2.6,19.63,7.8,25.73s12.53,9.15,21.98,9.15
				c5.05,0,9.45-0.91,13.2-2.74c3.75-1.83,6.82-4.56,9.23-8.21l-1.05,8.18h21.15l15.23-116.27H747.92z M733.63,646.73
				c-3.48,4.55-8.04,6.83-13.69,6.83c-5.45,0-9.77-1.58-12.94-4.73c-3.17-3.15-4.76-7.4-4.76-12.75c0-7.95,1.76-14.21,5.29-18.79
				c3.53-4.58,8.31-6.86,14.37-6.86c5.35,0,9.51,1.6,12.49,4.8c2.97,3.2,4.46,7.68,4.46,13.43
				C738.85,636.16,737.11,642.18,733.63,646.73z"/>
			<path class="st2" d="M655.03,663.38h-0.17l4.29-32.78c0.05-0.35,0.12-0.9,0.23-1.65c0.85-6.15,1.27-10.6,1.27-13.35
				c0-6.95-2.21-12.38-6.64-16.28c-4.42-3.9-10.61-5.85-18.57-5.85c-4.9,0-9.55,1.13-13.95,3.38c-4.4,2.25-8.85,5.8-13.35,10.65
				l1.65-11.55h-19.65l-9.68,73.58h21.23l4.72-36.08c1-7.6,3.21-13.21,6.64-16.84c3.42-3.63,8.24-5.44,14.44-5.44
				c3.55,0,6.3,0.95,8.25,2.85c1.95,1.9,2.93,4.58,2.93,8.03c0,0.7-0.04,1.59-0.11,2.66c-0.08,1.08-0.19,2.34-0.34,3.79l-5.4,41.03
				h0.02l-2.41,18.3h-13.95l-2.18,16.73h14.03l-7.57,56.86h21.23l7.5-56.86h14.33l2.1-16.73h-14.25L655.03,663.38z"/>
		</g>
		<path class="st2" d="M731.34,685.36c11.55,0,20.76,3.33,27.64,9.98c6.88,6.65,10.31,15.58,10.31,26.78
			c0,12.25-4.05,22.35-12.15,30.3c-8.1,7.95-18.5,11.93-31.2,11.93c-11.25,0-20.25-3.3-27-9.9c-6.75-6.6-10.13-15.38-10.13-26.33
			c0-12.5,3.99-22.75,11.96-30.75C708.75,689.36,718.94,685.36,731.34,685.36z M731.49,704.71c-6.3,0-11.38,2.14-15.23,6.41
			c-3.85,4.28-5.78,9.89-5.78,16.84c0,5.25,1.44,9.4,4.31,12.45c2.88,3.05,6.81,4.58,11.81,4.58c6.2,0,11.25-2.1,15.15-6.3
			c3.9-4.2,5.85-9.68,5.85-16.43c0-5.5-1.41-9.78-4.24-12.83S736.59,704.81,731.49,704.71z"/>
		<path class="st2" d="M787.4,761.42l9.68-73.59h19.65l-1.65,11.55c4.5-4.85,8.95-8.4,13.35-10.65c4.4-2.25,9.05-3.38,13.95-3.38
			c7.95,0,14.14,1.95,18.57,5.85c4.43,3.9,6.64,9.33,6.64,16.28c0,2.75-0.43,7.2-1.28,13.35c-0.1,0.75-0.18,1.3-0.22,1.65
			l-5.1,38.93h-21.23l5.4-41.03c0.15-1.45,0.26-2.71,0.34-3.79c0.08-1.07,0.11-1.96,0.11-2.66c0-3.45-0.98-6.13-2.93-8.03
			c-1.95-1.9-4.7-2.85-8.25-2.85c-6.2,0-11.01,1.81-14.44,5.44s-5.64,9.24-6.64,16.84l-4.73,36.08H787.4z"/>
	</g>
</g>
</svg>
